<?xml version="1.0" encoding="utf-8"?>
<!-- Generator: Adobe Illustrator 19.2.1, SVG Export Plug-In . SVG Version: 6.00 Build 0)  -->
<!DOCTYPE svg PUBLIC "-//W3C//DTD SVG 1.1//EN" "http://www.w3.org/Graphics/SVG/1.1/DTD/svg11.dtd">
<svg version="1.1" id="Layer_1" xmlns="http://www.w3.org/2000/svg" xmlns:xlink="http://www.w3.org/1999/xlink" x="0px" y="0px"
	 width="29.7px" height="29.7px" viewBox="0 0 29.7 29.7" enable-background="new 0 0 29.7 29.7" xml:space="preserve">
<path fill="#FFFFFF" d="M26.2,14.1H24V8.5c0-1.6-1.3-2.8-2.8-2.8h-5.7V3.5C15.6,1.6,14,0,12,0c-2,0-3.5,1.6-3.5,3.5v2.1H2.8
	C1.3,5.7,0,6.9,0,8.5v5.4h2.1c2.1,0,3.8,1.7,3.8,3.8s-1.7,3.8-3.8,3.8H0v5.4c0,1.6,1.3,2.8,2.8,2.8h5.4v-2.1c0-2.1,1.7-3.8,3.8-3.8
	s3.8,1.7,3.8,3.8v2.1h5.4c1.6,0,2.8-1.3,2.8-2.8v-5.7h2.1c2,0,3.5-1.6,3.5-3.5S28.1,14.1,26.2,14.1L26.2,14.1z M26.2,14.1"/>
</svg>
