<?xml version="1.0" encoding="utf-8"?>
<!-- Generator: Adobe Illustrator 19.2.1, SVG Export Plug-In . SVG Version: 6.00 Build 0)  -->
<!DOCTYPE svg PUBLIC "-//W3C//DTD SVG 1.1//EN" "http://www.w3.org/Graphics/SVG/1.1/DTD/svg11.dtd">
<svg version="1.1" id="Layer_1" xmlns="http://www.w3.org/2000/svg" xmlns:xlink="http://www.w3.org/1999/xlink" x="0px" y="0px"
	 width="36px" height="21px" viewBox="0 0 36 21" enable-background="new 0 0 36 21" xml:space="preserve">
<path fill="#FFFFFF" d="M36,10.5C36,10.5,28,21,18,21C8.1,21,0,10.5,0,10.5S8.1,0,18,0C28,0,36,10.5,36,10.5z"/>
<path fill="none" d="M18,2.3c-4.5,0-8.2,3.7-8.2,8.2s3.7,8.2,8.2,8.2s8.2-3.7,8.2-8.2C26.2,6,22.6,2.3,18,2.3L18,2.3z M21.5,10.8
	c-1.5,0-2.7-1.2-2.7-2.7c0-1.5,1.2-2.7,2.7-2.7c1.5,0,2.7,1.2,2.7,2.7C24.2,9.6,23,10.8,21.5,10.8L21.5,10.8z M21.5,10.8"/>
</svg>
