<?xml version="1.0" encoding="utf-8"?>
<!-- Generator: Adobe Illustrator 19.2.1, SVG Export Plug-In . SVG Version: 6.00 Build 0)  -->
<!DOCTYPE svg PUBLIC "-//W3C//DTD SVG 1.1//EN" "http://www.w3.org/Graphics/SVG/1.1/DTD/svg11.dtd">
<svg version="1.1" id="Layer_1" xmlns="http://www.w3.org/2000/svg" xmlns:xlink="http://www.w3.org/1999/xlink" x="0px" y="0px"
	 width="11px" height="39px" viewBox="0 0 11 39" enable-background="new 0 0 11 39" xml:space="preserve">
<path fill="#FFFFFF" d="M11,2.2c0,1.7-1.4,3.9-2.2,4.7C8,7.7,6.6,7.7,5.5,7.7c-1.1,0-2.5,0-3.3-0.8C1.4,6.1,0,3.9,0,2.2
	C0,0.3,3.4,0,5.5,0C7.6,0,11,0.3,11,2.2L11,2.2z M2.7,9L0.8,30.9c-0.1,1.7,0.4,3.3,1.5,4.6L5.5,39l3.3-3.5c1.2-1.3,1.8-3,1.6-4.8
	L8.3,9c0-0.3-0.3-0.5-0.6-0.5H3.3C3,8.5,2.7,8.7,2.7,9L2.7,9z M2.7,9"/>
</svg>
