<?xml version="1.0" encoding="utf-8"?>
<!-- Generator: Adobe Illustrator 19.2.1, SVG Export Plug-In . SVG Version: 6.00 Build 0)  -->
<!DOCTYPE svg PUBLIC "-//W3C//DTD SVG 1.1//EN" "http://www.w3.org/Graphics/SVG/1.1/DTD/svg11.dtd">
<svg version="1.1" id="Layer_1" xmlns="http://www.w3.org/2000/svg" xmlns:xlink="http://www.w3.org/1999/xlink" x="0px" y="0px"
	 width="21.3px" height="31.9px" viewBox="0 0 21.3 31.9" enable-background="new 0 0 21.3 31.9" xml:space="preserve">
<g>
	<path fill="#FFFFFF" d="M19.6,17.4H17c0,3.4-2.7,6.1-6.1,6.1c-3.4,0-6.1-2.7-6.1-6.1H2.2c0,4.4,3.2,8,7.4,8.6v5.4
		c0,0.2,0.2,0.5,0.6,0.5h1.4c0.3,0,0.6-0.2,0.6-0.5V26C16.4,25.4,19.6,21.8,19.6,17.4L19.6,17.4z M19.6,17.4"/>
	<path fill="#FFFFFF" d="M16.3,6.6c0-3-2.4-5.4-5.4-5.4c-3,0-5.4,2.4-5.4,5.4V17c0,3,2.4,5.4,5.4,5.4c3,0,5.4-2.4,5.4-5.4V6.6z
		 M16.3,6.6"/>
</g>
</svg>
