<?xml version="1.0" encoding="utf-8"?>
<!-- Generator: Adobe Illustrator 19.2.1, SVG Export Plug-In . SVG Version: 6.00 Build 0)  -->
<!DOCTYPE svg PUBLIC "-//W3C//DTD SVG 1.1//EN" "http://www.w3.org/Graphics/SVG/1.1/DTD/svg11.dtd">
<svg version="1.1" id="Layer_1" xmlns="http://www.w3.org/2000/svg" xmlns:xlink="http://www.w3.org/1999/xlink" x="0px" y="0px"
	 width="20.4px" height="25.6px" viewBox="0 0 20.4 25.6" enable-background="new 0 0 20.4 25.6" xml:space="preserve">
<g>
	<path fill="#FFFFFF" d="M20,16.9c-1.2,2-5.1,3.4-9.8,3.4c-4.6,0-8.6-1.5-9.8-3.4C0.1,16.5,0,16.8,0,17v2.9c0,2.8,4.6,5.7,10.2,5.7
		s10.2-2.9,10.2-5.7V17C20.4,16.8,20.2,16.5,20,16.9L20,16.9z M20,9.5c-1.2,1.8-5.1,3-9.8,3c-4.7,0-8.6-1.3-9.8-3
		C0.1,9.1,0,9.3,0,9.5v3.4c0,2.6,4.6,4.6,10.2,4.6s10.2-2.1,10.2-4.6V9.5C20.4,9.3,20.3,9.1,20,9.5L20,9.5z M10.2,0
		C4.6,0,0,1.7,0,3.8v1.8c0,2.2,4.6,4.1,10.2,4.1s10.2-1.8,10.2-4.1V3.8C20.4,1.7,15.8,0,10.2,0L10.2,0z M10.2,0"/>
</g>
</svg>
