<?xml version="1.0" encoding="utf-8"?>
<!-- Generator: Adobe Illustrator 20.0.0, SVG Export Plug-In . SVG Version: 6.00 Build 0)  -->
<svg version="1.1" id="Layer_1" xmlns="http://www.w3.org/2000/svg" xmlns:xlink="http://www.w3.org/1999/xlink" x="0px" y="0px"
	 viewBox="0 0 32 29.2" style="enable-background:new 0 0 32 29.2;" xml:space="preserve">
<g>
	<g>
		<path style="fill:#FFFFFF;" d="M32,22.8c0,3.6-2.9,6.4-6.5,6.4c-2.9,0-5.3-1.7-6.2-4.7h-6.6c-0.9,3-3.3,4.7-6.2,4.7
			c-3.6,0-6.5-2.8-6.5-6.4s2.9-6.5,6.5-6.5c0.4,0,0.9,0,1.3,0l2.1-3.8h0c1,1,2.2,1.8,3.6,2.2l-2.1,3.6c0.6,0.6,1,1.2,1.3,2.2h6.6
			c0.3-1,0.7-1.5,1.3-2.1l-2.1-3.6l0,0c1.3-0.4,2.7-1.1,3.6-2l2.1,3.7c0.4-0.1,0.8-0.1,1.3-0.1C29.1,16.3,32,19.2,32,22.8z"/>
	</g>
	<circle style="fill:#FFFFFF;" cx="16" cy="6.5" r="6.5"/>
</g>
</svg>
