<?xml version="1.0" encoding="utf-8"?>
<!-- Generator: Adobe Illustrator 19.2.1, SVG Export Plug-In . SVG Version: 6.00 Build 0)  -->
<!DOCTYPE svg PUBLIC "-//W3C//DTD SVG 1.1//EN" "http://www.w3.org/Graphics/SVG/1.1/DTD/svg11.dtd">
<svg version="1.1" id="Layer_1" xmlns="http://www.w3.org/2000/svg" xmlns:xlink="http://www.w3.org/1999/xlink" x="0px" y="0px"
	 width="31.9px" height="26px" viewBox="0 0 31.9 26" enable-background="new 0 0 31.9 26" xml:space="preserve">
<g>
	<path fill="#39B54A" d="M12.9,4C5.8,4,0,8.4,0,13.9c0,2.7,1.4,5.1,3.6,6.9c-0.1,1.8-0.6,4-1.8,5.2c2.5,0,5.1-1.6,6.7-2.8
		c1.4,0.4,2.8,0.6,4.3,0.6c7.1,0,12.9-4.4,12.9-9.9C25.7,8.4,20,4,12.9,4L12.9,4z M12.9,4"/>
	<path fill="#39B54A" d="M30,14.8c1.1-1.4,1.7-3.1,1.7-4.9c0-5.5-5.8-9.9-12.9-9.9c-3.1,0-6,0.9-8.2,2.3c1-0.2,2.1-0.3,3.3-0.3
		c7.6,0,13.9,4.9,13.9,10.9c0,2.4-1,4.6-2.6,6.4c1.6,1.2,4.2,2.8,6.7,2.8C30.1,20.4,29.9,16.6,30,14.8L30,14.8z M30,14.8"/>
</g>
</svg>
