<?xml version="1.0" encoding="utf-8"?>
<!-- Generator: Adobe Illustrator 19.2.1, SVG Export Plug-In . SVG Version: 6.00 Build 0)  -->
<!DOCTYPE svg PUBLIC "-//W3C//DTD SVG 1.1//EN" "http://www.w3.org/Graphics/SVG/1.1/DTD/svg11.dtd">
<svg version="1.1" id="Layer_1" xmlns="http://www.w3.org/2000/svg" xmlns:xlink="http://www.w3.org/1999/xlink" x="0px" y="0px"
	 width="21.3px" height="31.9px" viewBox="0 0 21.3 31.9" enable-background="new 0 0 21.3 31.9" xml:space="preserve">
<g>
	<path fill="#00A29A" d="M14.6,23.8H6.7c-0.6,0-1.1,0.5-1.1,1.1c0,0.6,0.5,1.1,1.1,1.1h7.9c0.6,0,1.1-0.5,1.1-1.1
		C15.6,24.3,15.2,23.8,14.6,23.8L14.6,23.8z M14.6,23.8"/>
	<path fill="#00A29A" d="M8.6,30.1v0.6c0,0.7,0.5,1.2,1.2,1.2h1.8c0.7,0,1.2-0.5,1.2-1.2v-0.6c1.3-0.1,2.4-1.2,2.4-2.6H6.2
		C6.2,28.9,7.2,30,8.6,30.1L8.6,30.1z M8.6,30.1"/>
	<path fill="#00A29A" d="M10.6,0C4.8,0,0,4.8,0,10.6c0,2.5,0.9,4.8,2.3,6.6c1.3,1.6,2.5,3.3,3.5,5.1h9.8c1-1.8,2.2-3.5,3.5-5.1
		c1.4-1.8,2.3-4.1,2.3-6.6C21.3,4.8,16.5,0,10.6,0L10.6,0z M10.7,3.7c-3.8,0-6.9,3.1-6.9,6.9c0,0.6-0.5,1.1-1.1,1.1
		c-0.6,0-1.1-0.5-1.1-1.1c0-4.9,4-9,9-9c0.6,0,1.1,0.5,1.1,1.1S11.2,3.7,10.7,3.7L10.7,3.7z M10.7,3.7"/>
</g>
</svg>
