<?xml version="1.0" encoding="utf-8"?>
<!-- Generator: Adobe Illustrator 19.2.1, SVG Export Plug-In . SVG Version: 6.00 Build 0)  -->
<!DOCTYPE svg PUBLIC "-//W3C//DTD SVG 1.1//EN" "http://www.w3.org/Graphics/SVG/1.1/DTD/svg11.dtd">
<svg version="1.1" id="Layer_1" xmlns="http://www.w3.org/2000/svg" xmlns:xlink="http://www.w3.org/1999/xlink" x="0px" y="0px"
	 width="32px" height="29.5px" viewBox="0 0 32 29.5" enable-background="new 0 0 32 29.5" xml:space="preserve">
<path fill="#3F80C2" d="M25.5,16.4c-0.4,0-0.9,0-1.3,0.1l-3.3-5.7c1-1.1,1.6-2.7,1.6-4.3C22.5,2.9,19.6,0,16,0
	c-3.6,0-6.5,2.9-6.5,6.5c0,1.7,0.6,3.2,1.6,4.3l-3.3,5.7c-0.4-0.1-0.8-0.1-1.3-0.1c-3.6,0-6.5,2.9-6.5,6.5c0,3.6,2.9,6.5,6.5,6.5
	c2.9,0,5.3-1.9,6.2-4.4h6.6c0.9,2.6,3.3,4.4,6.2,4.4c3.6,0,6.5-2.9,6.5-6.5C32,19.3,29.1,16.4,25.5,16.4L25.5,16.4z M11.4,18.6
	l3.3-5.7c0.4,0.1,0.8,0.1,1.3,0.1c0.4,0,0.9,0,1.3-0.1l3.3,5.7c-0.6,0.6-1,1.4-1.3,2.2h-6.6C12.4,20,12,19.3,11.4,18.6L11.4,18.6z
	 M11.4,18.6"/>
</svg>
