<?xml version="1.0" encoding="utf-8"?>
<!-- Generator: Adobe Illustrator 19.2.1, SVG Export Plug-In . SVG Version: 6.00 Build 0)  -->
<!DOCTYPE svg PUBLIC "-//W3C//DTD SVG 1.1//EN" "http://www.w3.org/Graphics/SVG/1.1/DTD/svg11.dtd">
<svg version="1.1" id="Layer_1" xmlns="http://www.w3.org/2000/svg" xmlns:xlink="http://www.w3.org/1999/xlink" x="0px" y="0px"
	 width="32.9px" height="28.8px" viewBox="0 0 32.9 28.8" enable-background="new 0 0 32.9 28.8" xml:space="preserve">
<path fill="#ED1C24" d="M4.1,28.8h12.3c-4.5,0-8.2-3.7-8.2-8.2v-4.1c8.2,0,8.2-8.2,8.2-8.2s0,8.2,8.2,8.2v4.1c0,4.5-3.7,8.2-8.2,8.2
	h12.3c2.3,0,4.1-1.8,4.1-4.1c-2.3,0-4.1-1.8-4.1-4.1v-8.2C28.8,5.5,23.2,0,16.4,0C9.6,0,4.1,5.5,4.1,12.3v8.2c0,2.3-1.8,4.1-4.1,4.1
	C0,26.9,1.8,28.8,4.1,28.8L4.1,28.8z M4.1,28.8"/>
</svg>
