<svg xmlns="http://www.w3.org/2000/svg" viewBox="0 0 75.9 75.9"><defs><style>.cls-1{fill:#5fa6df;}</style></defs><title>adoption</title><g id="Layer_2" data-name="Layer 2"><g id="Layer_1-2" data-name="Layer 1"><path class="cls-1" d="M53.2,75.9H37.8V68.3a6.6,6.6,0,0,0-13.2,0v7.6H9.3A9.35,9.35,0,0,1,0,66.6V51.3H7.6a6.53,6.53,0,0,0,6.6-6.6,6.66,6.66,0,0,0-6.6-6.6H0V22.8a9.35,9.35,0,0,1,9.3-9.3h11V10.9a10.9,10.9,0,0,1,21.8,0v2.6h11a9.35,9.35,0,0,1,9.3,9.3v11H65a10.9,10.9,0,1,1,0,21.8H62.4v11A9.2,9.2,0,0,1,53.2,75.9Zm-10.4-5H53.2a4.4,4.4,0,0,0,4.3-4.3v-16h7.6a5.9,5.9,0,0,0,0-11.8H57.5v-16a4.33,4.33,0,0,0-4.3-4.3h-16V10.9a5.9,5.9,0,0,0-11.8,0v7.6H9.4a4.33,4.33,0,0,0-4.3,4.3V33.1H7.7a11.6,11.6,0,0,1,0,23.2H5.1V66.6a4.33,4.33,0,0,0,4.3,4.3H19.7V68.3a11.6,11.6,0,0,1,23.2,0v2.6Z"/></g></g></svg>