<svg xmlns="http://www.w3.org/2000/svg" viewBox="0 0 108.5 108.5"><defs><style>.cls-1{fill:none;stroke:#5fa6df;stroke-linecap:round;stroke-miterlimit:10;stroke-width:5px;}</style></defs><title>Asset 1</title><g id="Layer_2" data-name="Layer 2"><g id="Layer_1-2" data-name="Layer 1"><path class="cls-1" d="M54.3,68.5A14.2,14.2,0,1,1,68.5,54.3,14.25,14.25,0,0,1,54.3,68.5Z"/><path class="cls-1" d="M54.3,24.1A10.8,10.8,0,1,1,65.1,13.3,10.82,10.82,0,0,1,54.3,24.1Z"/><line class="cls-1" x1="54.3" y1="22.3" x2="54.3" y2="34.1"/><path class="cls-1" d="M54.3,84.4A10.8,10.8,0,1,1,43.5,95.2,10.82,10.82,0,0,1,54.3,84.4Z"/><line class="cls-1" x1="54.3" y1="86.3" x2="54.3" y2="74.5"/><path class="cls-1" d="M84.4,54.3A10.8,10.8,0,1,1,95.2,65.1,10.82,10.82,0,0,1,84.4,54.3Z"/><line class="cls-1" x1="86.3" y1="54.3" x2="74.5" y2="54.3"/><path class="cls-1" d="M24.1,54.3A10.8,10.8,0,1,1,13.3,43.5,10.82,10.82,0,0,1,24.1,54.3Z"/><line class="cls-1" x1="22.3" y1="54.3" x2="34.1" y2="54.3"/><path class="cls-1" d="M70.7,37.9a8.34,8.34,0,1,1,11.8,0A8.45,8.45,0,0,1,70.7,37.9Z"/><line class="cls-1" x1="71.7" y1="36.9" x2="65.3" y2="43.3"/><path class="cls-1" d="M37.9,70.7a8.34,8.34,0,1,1-11.8,0A8.27,8.27,0,0,1,37.9,70.7Z"/><line class="cls-1" x1="36.9" y1="71.7" x2="43.3" y2="65.3"/><path class="cls-1" d="M70.7,70.7a8.34,8.34,0,1,1,0,11.8A8.27,8.27,0,0,1,70.7,70.7Z"/><line class="cls-1" x1="71.7" y1="71.7" x2="65.3" y2="65.3"/><path class="cls-1" d="M37.9,37.9a8.34,8.34,0,1,1,0-11.8A8.45,8.45,0,0,1,37.9,37.9Z"/><line class="cls-1" x1="36.9" y1="36.9" x2="43.3" y2="43.3"/></g></g></svg>