<?xml version="1.0" encoding="utf-8"?>
<!-- Generator: Adobe Illustrator 21.0.0, SVG Export Plug-In . SVG Version: 6.00 Build 0)  -->
<svg version="1.1" id="Layer_1" xmlns="http://www.w3.org/2000/svg" xmlns:xlink="http://www.w3.org/1999/xlink" x="0px" y="0px"
	 viewBox="0 0 100 87.8" style="enable-background:new 0 0 100 87.8;" xml:space="preserve">
<style type="text/css">
	.st0{fill:#ED1C24;}
</style>
<path class="st0" d="M12.5,87.8H50c-13.7,0-25-11.3-25-25V50.3c25,0,25-25,25-25s0,25,25,25v12.5c0,13.7-11.3,25-25,25h37.5
	c7,0,12.5-5.5,12.5-12.5c-7,0-12.5-5.5-12.5-12.5v-25C87.8,16.8,70.7,0,50,0S12.5,16.8,12.5,37.5v25C12.5,69.5,7,75,0,75
	C0,82,5.5,87.8,12.5,87.8L12.5,87.8z"/>
</svg>
