<svg xmlns="http://www.w3.org/2000/svg" viewBox="0 0 62.8 99.5"><defs><style>.cls-1{fill:#5fa6df;}</style></defs><title>Asset 1</title><g id="Layer_2" data-name="Layer 2"><g id="Layer_1-2" data-name="Layer 1"><path class="cls-1" d="M42.5,99.5H20.2A8.24,8.24,0,0,1,12,91.3V54.6a2.5,2.5,0,1,1,5,0V91.3a3.22,3.22,0,0,0,3.2,3.2H42.5a3.22,3.22,0,0,0,3.2-3.2V54.5a2.5,2.5,0,0,1,5,0V91.3A8.24,8.24,0,0,1,42.5,99.5Z"/><path class="cls-1" d="M48.7,48.9H14a8.24,8.24,0,0,1-8.2-8.2v-14A8.24,8.24,0,0,1,14,18.5H48.7a8.24,8.24,0,0,1,8.2,8.2v14A8.24,8.24,0,0,1,48.7,48.9ZM14,23.6a3.22,3.22,0,0,0-3.2,3.2v14A3.22,3.22,0,0,0,14,44H48.7a3.22,3.22,0,0,0,3.2-3.2V26.7a3.22,3.22,0,0,0-3.2-3.2H14Z"/><circle class="cls-1" cx="21.4" cy="33.7" r="3.2"/><circle class="cls-1" cx="41.4" cy="33.7" r="3.2"/><circle class="cls-1" cx="31.2" cy="4.6" r="4.6"/><path class="cls-1" d="M31.4,22.6a2.48,2.48,0,0,1-2.5-2.5V5.1a2.5,2.5,0,0,1,5,0v15A2.48,2.48,0,0,1,31.4,22.6Z"/><path class="cls-1" d="M14.2,79.7h-6A8.24,8.24,0,0,1,0,71.5V49.8a2.48,2.48,0,0,1,2.5-2.5A2.48,2.48,0,0,1,5,49.8V71.5a3.22,3.22,0,0,0,3.2,3.2h6a2.5,2.5,0,1,1,0,5Z"/><path class="cls-1" d="M54.6,79.7h-6a2.5,2.5,0,1,1,0-5h6a3.22,3.22,0,0,0,3.2-3.2V49.8a2.5,2.5,0,0,1,5,0V71.5A8.3,8.3,0,0,1,54.6,79.7Z"/></g></g></svg>