<svg xmlns="http://www.w3.org/2000/svg" viewBox="0 0 77.8 77.8"><defs><style>.cls-1{fill:#5fa6df;}</style></defs><title>Asset 1</title><g id="Layer_2" data-name="Layer 2"><g id="Layer_1-2" data-name="Layer 1"><path class="cls-1" d="M59.8,68H17.9a8.24,8.24,0,0,1-8.2-8.2V17.9a8.24,8.24,0,0,1,8.2-8.2H59.8A8.24,8.24,0,0,1,68,17.9V59.8A8.24,8.24,0,0,1,59.8,68ZM17.9,14.8A3.22,3.22,0,0,0,14.7,18V59.9a3.22,3.22,0,0,0,3.2,3.2H59.8A3.22,3.22,0,0,0,63,59.9v-42a3.22,3.22,0,0,0-3.2-3.2H17.9Z"/><rect class="cls-1" x="19.4" width="5" height="12.5"/><rect class="cls-1" x="30.7" width="5" height="12.5"/><rect class="cls-1" x="42" width="5" height="12.5"/><rect class="cls-1" x="53.4" width="5" height="12.5"/><rect class="cls-1" x="19.4" y="65.3" width="5" height="12.5"/><rect class="cls-1" x="30.7" y="65.3" width="5" height="12.5"/><rect class="cls-1" x="42" y="65.3" width="5" height="12.5"/><rect class="cls-1" x="53.4" y="65.3" width="5" height="12.5"/><rect class="cls-1" x="65.3" y="19.4" width="12.5" height="5"/><rect class="cls-1" x="65.3" y="30.7" width="12.5" height="5"/><rect class="cls-1" x="65.3" y="42" width="12.5" height="5"/><rect class="cls-1" x="65.3" y="53.4" width="12.5" height="5"/><rect class="cls-1" y="19.4" width="12.5" height="5"/><rect class="cls-1" y="30.7" width="12.5" height="5"/><rect class="cls-1" y="42" width="12.5" height="5"/><rect class="cls-1" y="53.4" width="12.5" height="5"/><path class="cls-1" d="M54,54H23.8V23.8H54ZM28.8,49H49V28.8H28.8Z"/></g></g></svg>