<svg xmlns="http://www.w3.org/2000/svg" viewBox="0 0 83.91 81.44"><defs><style>.cls-1{fill:#5fa6df;}</style></defs><title>Asset 1</title><g id="Layer_2" data-name="Layer 2"><g id="Layer_1-2" data-name="Layer 1"><path class="cls-1" d="M77.1,81.44H53.9a2.48,2.48,0,0,1-2.5-2.5V57.34H32.5v21.6a2.48,2.48,0,0,1-2.5,2.5H6.8a2.48,2.48,0,0,1-2.5-2.5V44.44H2.5a2.53,2.53,0,0,1-2.3-1.5,2.46,2.46,0,0,1,.5-2.7L40,.94a2.29,2.29,0,0,1,1-.7,1.85,1.85,0,0,1,.7-.2,2,2,0,0,1,1.3.2A2,2,0,0,1,44,1l39.2,39.1a2.46,2.46,0,0,1,.5,2.7,2.53,2.53,0,0,1-2.3,1.5H79.6v34.6A2.48,2.48,0,0,1,77.1,81.44Zm-20.7-5H74.6V41.94a2.44,2.44,0,0,1,1.2-2.1L42,6,8.2,39.84a2.44,2.44,0,0,1,1.2,2.1v34.6H27.6V54.84a2.48,2.48,0,0,1,2.5-2.5H54a2.48,2.48,0,0,1,2.5,2.5v21.6Z"/></g></g></svg>