<svg xmlns="http://www.w3.org/2000/svg" viewBox="0 0 75.65 75.92"><defs><style>.cls-1{fill:#5fa6df;}</style></defs><title>Asset 1</title><g id="Layer_2" data-name="Layer 2"><g id="Layer_1-2" data-name="Layer 1"><path class="cls-1" d="M37.82,75.92a32.53,32.53,0,0,1-4.4-.3,4.42,4.42,0,0,1-3.9-4.7,5.25,5.25,0,0,0-3.3-5.2,5.62,5.62,0,0,0-6,1.4,4.4,4.4,0,0,1-6.1.5,38.5,38.5,0,0,1-6-6.1,4.6,4.6,0,0,1,.5-6.1,5.4,5.4,0,0,0,1.4-6,5.18,5.18,0,0,0-4.9-3.3h0a4.84,4.84,0,0,1-4.9-4,41.2,41.2,0,0,1,0-8.6,4.25,4.25,0,0,1,4.6-3.9,5.58,5.58,0,0,0,5.3-3.3,5.24,5.24,0,0,0-1.4-6,4.5,4.5,0,0,1-.5-6.1,44,44,0,0,1,6.1-6.1,4.6,4.6,0,0,1,6.1.5,5.58,5.58,0,0,0,6,1.4,5.25,5.25,0,0,0,3.3-5.2,4.55,4.55,0,0,1,4-4.6,40.25,40.25,0,0,1,8.5,0,4.35,4.35,0,0,1,3.9,4.7,5.25,5.25,0,0,0,3.3,5.2,5.58,5.58,0,0,0,6-1.4,4.4,4.4,0,0,1,6.1-.5,38.5,38.5,0,0,1,6,6.1,4.6,4.6,0,0,1-.5,6.1,5.58,5.58,0,0,0-1.4,6,5.36,5.36,0,0,0,5,3.3,4.81,4.81,0,0,1,4.8,4,41.2,41.2,0,0,1,0,8.6h0a4.48,4.48,0,0,1-4.7,3.9h-.4a5.32,5.32,0,0,0-4.9,3.3,5.24,5.24,0,0,0,1.4,6,4.4,4.4,0,0,1,.5,6.1,44,44,0,0,1-6.1,6.1,4.59,4.59,0,0,1-6.1-.5,5.62,5.62,0,0,0-6-1.4,5.25,5.25,0,0,0-3.3,5.2,4.55,4.55,0,0,1-4,4.6A25,25,0,0,1,37.82,75.92Zm-3.3-4.7Zm0-.5a34.21,34.21,0,0,0,6.4,0,10.28,10.28,0,0,1,17.6-7.2,28.59,28.59,0,0,0,4.6-4.6,10.13,10.13,0,0,1-2.2-11.3,10.41,10.41,0,0,1,9.6-6.3h.1a35.28,35.28,0,0,0,0-6.5,10.52,10.52,0,0,1-9.5-6.4,10.32,10.32,0,0,1,2.2-11.2,39.19,39.19,0,0,0-4.5-4.6,10.75,10.75,0,0,1-11.3,2.3,10.2,10.2,0,0,1-6.3-9.6,34.21,34.21,0,0,0-6.4,0,10.63,10.63,0,0,1-6.4,9.5,11.16,11.16,0,0,1-11.3-2.4,28.59,28.59,0,0,0-4.6,4.6,10.13,10.13,0,0,1,2.2,11.3,10.63,10.63,0,0,1-9.6,6.3,35.28,35.28,0,0,0,0,6.5,10.34,10.34,0,0,1,7.3,17.6,39.19,39.19,0,0,0,4.5,4.6A10.75,10.75,0,0,1,28.22,61,10.44,10.44,0,0,1,34.52,70.72Zm-.5,0ZM12,58.42Zm-7.3-23.8Zm59.1-17.8ZM41.22,4.72Z"/><path class="cls-1" d="M37.92,52.42a14.3,14.3,0,1,1,14.3-14.3A14.3,14.3,0,0,1,37.92,52.42Zm0-23.7a9.3,9.3,0,1,0,9.3,9.3A9.35,9.35,0,0,0,37.92,28.72Z"/></g></g></svg>