<svg xmlns="http://www.w3.org/2000/svg" viewBox="0 0 54 93.4"><defs><style>.cls-1{fill:#5fa6df;}</style></defs><title>Asset 1</title><g id="Layer_2" data-name="Layer 2"><g id="Layer_1-2" data-name="Layer 1"><path class="cls-1" d="M27,33.6A16.8,16.8,0,1,1,43.8,16.8,16.77,16.77,0,0,1,27,33.6ZM27,5A11.8,11.8,0,1,0,38.8,16.8,11.82,11.82,0,0,0,27,5Z"/><path class="cls-1" d="M12.4,93.4a2.38,2.38,0,0,1-2.4-2L0,45.5v-.3A7.17,7.17,0,0,1,7.2,38H46.8A7.17,7.17,0,0,1,54,45.2v.4L45.7,91.3a2.49,2.49,0,1,1-4.9-.9L49,45a2.19,2.19,0,0,0-2.2-2H7.2A2.26,2.26,0,0,0,5,45l9.8,45.3a2.58,2.58,0,0,1-1.9,3A.75.75,0,0,1,12.4,93.4Z"/><path class="cls-1" d="M27,83.1a2.48,2.48,0,0,1-2.5-2.5V48.2a2.5,2.5,0,0,1,5,0V80.5A2.56,2.56,0,0,1,27,83.1Z"/></g></g></svg>