<svg xmlns="http://www.w3.org/2000/svg" viewBox="0 0 37.83 80.7"><defs><style>.cls-1{fill:#5fa6df;}</style></defs><title>Asset 1</title><g id="Layer_2" data-name="Layer 2"><g id="Layer_1-2" data-name="Layer 1"><path class="cls-1" d="M26.66,80.7h-17V71.3l-5.6-4.4A6.62,6.62,0,0,1,1.86,64a7,7,0,0,1-.6-3V43.9h33.9V61a7.45,7.45,0,0,1-.6,3.1,7.94,7.94,0,0,1-2.1,2.8l-.1.1-5.6,4.4Zm-12-5h7V68.8l7.5-5.9a2.16,2.16,0,0,0,.8-1,3.73,3.73,0,0,0,.2-1.2v-12H6.26V60.8a3.59,3.59,0,0,0,.2,1.1,3.14,3.14,0,0,0,.8,1l7.4,5.9Z"/><path class="cls-1" d="M2.76,15.8a2.55,2.55,0,0,1-2.4-1.9,2.52,2.52,0,0,1,1.8-3l20.7-5.1V2.5a2.5,2.5,0,0,1,5,0V7.7A2.38,2.38,0,0,1,26,10.1L3.36,15.6A.73.73,0,0,1,2.76,15.8Z"/><path class="cls-1" d="M2.46,31.2a2.55,2.55,0,0,1-2.4-1.9,2.52,2.52,0,0,1,1.8-3l32.3-8a2.47,2.47,0,1,1,1.2,4.8l-32.3,8A1.27,1.27,0,0,1,2.46,31.2Z"/><path class="cls-1" d="M12.56,56.5h0a2.48,2.48,0,0,1-2.5-2.5l.1-10.7-7.4-5.1a2.45,2.45,0,0,1-1-2.5,2.59,2.59,0,0,1,1.9-2L34.76,26A2.47,2.47,0,1,1,36,30.8l-25.7,6.4,3.9,2.7a2.61,2.61,0,0,1,1.1,2.1l-.1,12A2.7,2.7,0,0,1,12.56,56.5Z"/><path class="cls-1" d="M24,56.5a2.48,2.48,0,0,1-2.5-2.5l-.1-12a2.33,2.33,0,0,1,1-2l8.5-6.6A2.49,2.49,0,0,1,34,37.3l-7.5,5.9.1,10.8A2.63,2.63,0,0,1,24,56.5Z"/><path class="cls-1" d="M2.66,23.5a2.55,2.55,0,0,1-2.4-1.9,2.52,2.52,0,0,1,1.8-3l32.3-8a2.47,2.47,0,1,1,1.2,4.8l-32.3,8A1.27,1.27,0,0,1,2.66,23.5Z"/><path class="cls-1" d="M26.66,80.7h-17V71.3l-5.6-4.4A6.62,6.62,0,0,1,1.86,64a7,7,0,0,1-.6-3V43.9h33.9V61a7.45,7.45,0,0,1-.6,3.1,7.94,7.94,0,0,1-2.1,2.8l-.1.1-5.6,4.4Zm-12-5h7V68.8l7.5-5.9a2.16,2.16,0,0,0,.8-1,3.73,3.73,0,0,0,.2-1.2v-12H6.26V60.8a3.59,3.59,0,0,0,.2,1.1,3.14,3.14,0,0,0,.8,1l7.4,5.9Z"/><path class="cls-1" d="M2.76,15.8a2.55,2.55,0,0,1-2.4-1.9,2.52,2.52,0,0,1,1.8-3l20.7-5.1V2.5a2.5,2.5,0,0,1,5,0V7.7A2.38,2.38,0,0,1,26,10.1L3.36,15.6A.73.73,0,0,1,2.76,15.8Z"/><path class="cls-1" d="M2.46,31.2a2.55,2.55,0,0,1-2.4-1.9,2.52,2.52,0,0,1,1.8-3l32.3-8a2.47,2.47,0,1,1,1.2,4.8l-32.3,8A1.27,1.27,0,0,1,2.46,31.2Z"/><path class="cls-1" d="M12.56,56.5h0a2.48,2.48,0,0,1-2.5-2.5l.1-10.7-7.4-5.1a2.45,2.45,0,0,1-1-2.5,2.59,2.59,0,0,1,1.9-2L34.76,26A2.47,2.47,0,1,1,36,30.8l-25.7,6.4,3.9,2.7a2.61,2.61,0,0,1,1.1,2.1l-.1,12A2.7,2.7,0,0,1,12.56,56.5Z"/><path class="cls-1" d="M24,56.5a2.48,2.48,0,0,1-2.5-2.5l-.1-12a2.33,2.33,0,0,1,1-2l8.5-6.6A2.49,2.49,0,0,1,34,37.3l-7.5,5.9.1,10.8A2.63,2.63,0,0,1,24,56.5Z"/><path class="cls-1" d="M2.66,23.5a2.55,2.55,0,0,1-2.4-1.9,2.52,2.52,0,0,1,1.8-3l32.3-8a2.47,2.47,0,1,1,1.2,4.8l-32.3,8A1.27,1.27,0,0,1,2.66,23.5Z"/><path class="cls-1" d="M26.66,80.7h-17V71.3l-5.6-4.4A6.62,6.62,0,0,1,1.86,64a7,7,0,0,1-.6-3V43.9h33.9V61a7.45,7.45,0,0,1-.6,3.1,7.94,7.94,0,0,1-2.1,2.8l-.1.1-5.6,4.4Zm-12-5h7V68.8l7.5-5.9a2.16,2.16,0,0,0,.8-1,3.73,3.73,0,0,0,.2-1.2v-12H6.26V60.8a3.59,3.59,0,0,0,.2,1.1,3.14,3.14,0,0,0,.8,1l7.4,5.9Z"/><path class="cls-1" d="M2.76,15.8a2.55,2.55,0,0,1-2.4-1.9,2.52,2.52,0,0,1,1.8-3l20.7-5.1V2.5a2.5,2.5,0,0,1,5,0V7.7A2.38,2.38,0,0,1,26,10.1L3.36,15.6A.73.73,0,0,1,2.76,15.8Z"/><path class="cls-1" d="M2.46,31.2a2.55,2.55,0,0,1-2.4-1.9,2.52,2.52,0,0,1,1.8-3l32.3-8a2.47,2.47,0,1,1,1.2,4.8l-32.3,8A1.27,1.27,0,0,1,2.46,31.2Z"/><path class="cls-1" d="M12.56,56.5h0a2.48,2.48,0,0,1-2.5-2.5l.1-10.7-7.4-5.1a2.45,2.45,0,0,1-1-2.5,2.59,2.59,0,0,1,1.9-2L34.76,26A2.47,2.47,0,1,1,36,30.8l-25.7,6.4,3.9,2.7a2.61,2.61,0,0,1,1.1,2.1l-.1,12A2.7,2.7,0,0,1,12.56,56.5Z"/><path class="cls-1" d="M24,56.5a2.48,2.48,0,0,1-2.5-2.5l-.1-12a2.33,2.33,0,0,1,1-2l8.5-6.6A2.49,2.49,0,0,1,34,37.3l-7.5,5.9.1,10.8A2.63,2.63,0,0,1,24,56.5Z"/><path class="cls-1" d="M2.66,23.5a2.55,2.55,0,0,1-2.4-1.9,2.52,2.52,0,0,1,1.8-3l32.3-8a2.47,2.47,0,1,1,1.2,4.8l-32.3,8A1.27,1.27,0,0,1,2.66,23.5Z"/></g></g></svg>