<svg xmlns="http://www.w3.org/2000/svg" viewBox="0 0 85.6 85.6"><defs><style>.cls-1{fill:#5fa6df;}</style></defs><title>Asset 1</title><g id="Layer_2" data-name="Layer 2"><g id="Layer_1-2" data-name="Layer 1"><path class="cls-1" d="M42.8,85.6h0a2.46,2.46,0,0,1-2.4-1.8L34,63,22.5,66.1a2.56,2.56,0,0,1-2.4-.6,2.39,2.39,0,0,1-.6-2.4l3.1-11.5L1.8,45.2A2.58,2.58,0,0,1,0,42.8a2.46,2.46,0,0,1,1.8-2.4L22.6,34,19.5,22.5a2.56,2.56,0,0,1,.6-2.4,2.39,2.39,0,0,1,2.4-.6L34,22.6,40.4,1.8A2.58,2.58,0,0,1,42.8,0a2.46,2.46,0,0,1,2.4,1.8L46,4.4h0l5.6,18.2L63,19.4a2.56,2.56,0,0,1,2.4.6,2.39,2.39,0,0,1,.6,2.4L63,34l20.8,6.4a2.58,2.58,0,0,1,1.8,2.4,2.46,2.46,0,0,1-1.8,2.4L63,51.6,66.1,63a2.56,2.56,0,0,1-.6,2.4,2.39,2.39,0,0,1-2.4.6L51.6,63,45.2,83.8A2.55,2.55,0,0,1,42.8,85.6ZM35.7,57.5a2.46,2.46,0,0,1,2.4,1.8l4.7,15.4,4.7-15.4a2.5,2.5,0,0,1,3-1.7l9.6,2.6-2.6-9.6a2.42,2.42,0,0,1,1.7-3l15.4-4.7L59.2,38.2a2.5,2.5,0,0,1-1.7-3l2.6-9.6L50.5,28a2.42,2.42,0,0,1-3-1.7L42.8,11,38.1,26.4a2.5,2.5,0,0,1-3,1.7l-9.6-2.6L28,35a2.42,2.42,0,0,1-1.7,3L11,42.8l15.4,4.7a2.5,2.5,0,0,1,1.7,3l-2.6,9.6,9.6-2.6Z"/><path class="cls-1" d="M42.8,83.1a2.46,2.46,0,0,1-2.4-1.8L31.9,53.6,4.2,45.1a2.58,2.58,0,0,1-1.8-2.4,2.46,2.46,0,0,1,1.8-2.4l27.7-8.5L40.4,4.1a2.58,2.58,0,0,1,2.4-1.8,2.46,2.46,0,0,1,2.4,1.8l8.5,27.7,27.7,8.5a2.58,2.58,0,0,1,1.8,2.4,2.46,2.46,0,0,1-1.8,2.4L53.7,53.6,45.2,81.3A2.55,2.55,0,0,1,42.8,83.1ZM13.4,42.8l21.2,6.5A2.62,2.62,0,0,1,36.3,51l6.5,21.2L49.3,51a2.7,2.7,0,0,1,1.6-1.7l.5-.1,20.7-6.4L50.9,36.3a2.62,2.62,0,0,1-1.7-1.7L42.7,13.4,36.2,34.6a2.62,2.62,0,0,1-1.7,1.7Z"/></g></g></svg>