<svg xmlns="http://www.w3.org/2000/svg" viewBox="0 0 77.78 84.3"><defs><style>.cls-1{fill:#5fa6df;}</style></defs><title>Asset 1</title><g id="Layer_2" data-name="Layer 2"><g id="Layer_1-2" data-name="Layer 1"><path class="cls-1" d="M38.94,84.3c-4.3,0-10.4-2.5-14.8-14.4a1.73,1.73,0,0,1-.1-1,42.34,42.34,0,0,1-8.9,1.1c-8.2,0-11.9-3.4-13.6-6.3C-1.86,57.8.44,50.2,7.84,42a2.76,2.76,0,0,1-.9-.7c-8.5-10.1-7.6-16.9-5.4-20.8,1.7-2.9,5.5-6.4,13.9-6.4a39.65,39.65,0,0,1,7.3.8,1.6,1.6,0,0,1,1,.5c3.1-9,8.1-15.4,15.1-15.4,4.3,0,10.4,2.5,14.8,14.4a1.73,1.73,0,0,1,.1,1,42.34,42.34,0,0,1,8.9-1.1c8.2,0,11.9,3.4,13.6,6.3,3.7,6.3.4,14.2-6.3,21.6a2,2,0,0,1,.9.7c8.5,10.1,7.6,16.9,5.3,20.8-1.7,2.9-5.5,6.4-13.9,6.4a49.77,49.77,0,0,1-7.3-.7,3,3,0,0,1-1-.4C50.74,78.8,45.44,84.3,38.94,84.3ZM28.64,67.7c.1.2.2.3.3.5,1.4,4.1,4.7,11.1,10,11.1,5.8,0,10.7-8.5,12.9-22.3-1.1.7-2.1,1.3-3.2,1.9A97.8,97.8,0,0,1,28.64,67.7Zm26.9-3.3H56c8.2,1.5,13.8.3,15.9-3.3,2.8-4.8-1.8-11.5-4.8-15.1a2.18,2.18,0,0,0-.4-.5,85.53,85.53,0,0,1-10.8,8.7,2.25,2.25,0,0,1,.9,2.3,77.3,77.3,0,0,1-1.5,7.8A.31.31,0,0,0,55.54,64.4ZM19.94,37.6C8.34,46.8,2.84,56,5.84,61.2c1.4,2.5,4.6,3.8,9.3,3.8,8.1,0,19.7-3.9,31-10.4C64.64,43.9,76,30,72,23c-1.4-2.5-4.6-3.8-9.3-3.8s-10.9,1.4-17.5,3.9c1.2.6,2.4,1.3,3.5,1.9a96.22,96.22,0,0,1,12.1,8.3,2.49,2.49,0,0,1-3.1,3.9,93.18,93.18,0,0,0-11.5-7.8A91,91,0,0,0,34,23.5a2.53,2.53,0,0,1,1.9-4.7,50,50,0,0,1,4.8,2.1,2.58,2.58,0,0,1,1.5-2,74,74,0,0,1,7-2.5c-.1-.2-.2-.3-.2-.5-1.5-4.1-4.8-11.1-10.1-11.1-7.9,0-14,16.3-14,37.2a87.48,87.48,0,0,0,1,13.7,2.47,2.47,0,1,1-4.9.7,98.06,98.06,0,0,1-1-14.5A30.14,30.14,0,0,1,19.94,37.6Zm-4.5-18.5c-4.8,0-8.1,1.4-9.5,3.9-2.8,4.8,1.8,11.5,4.9,15.1.1.2.3.3.3.5a79.59,79.59,0,0,1,6.7-5.7,2.29,2.29,0,0,1,2.5-.3,85.48,85.48,0,0,1,2.1-12.8h-.6A31.17,31.17,0,0,0,15.44,19.1Z"/><circle class="cls-1" cx="38.94" cy="42.1" r="7.4"/></g></g></svg>