<svg xmlns="http://www.w3.org/2000/svg" viewBox="0 0 82.4 75.8"><defs><style>.cls-1{fill:#5fa6df;}</style></defs><title>Asset 1</title><g id="Layer_2" data-name="Layer 2"><g id="Layer_1-2" data-name="Layer 1"><path class="cls-1" d="M64.2,75.8A18.29,18.29,0,0,1,47.5,65.1H35A18.29,18.29,0,1,1,18.3,39.4a10.87,10.87,0,0,1,1.8.1l6.2-10.7a18.3,18.3,0,1,1,29.8,0l6.2,10.7a10.87,10.87,0,0,1,1.8-.1,18.2,18.2,0,1,1,.1,36.4ZM31.6,60.1H51l.6,1.7A13.28,13.28,0,1,0,64.2,44.4a10.9,10.9,0,0,0-2.6.3l-1.8.4L50.1,28.3l1.2-1.4a13.3,13.3,0,1,0-20,0l1.2,1.4L22.8,45.1l-1.7-.3a12.22,12.22,0,0,0-2.6-.3A13.2,13.2,0,1,0,31.1,61.9Zm19.4-5H31.6L31,53.4a12.65,12.65,0,0,0-2.6-4.5l-1.2-1.4,9.7-16.7,1.7.3a13.5,13.5,0,0,0,5.3,0l1.8-.4,9.7,16.8-1.2,1.4a11.32,11.32,0,0,0-2.6,4.5Zm-16-5H47.5A19.23,19.23,0,0,1,49.3,47L43.1,36.3a21.64,21.64,0,0,1-3.6,0L33.3,47A18.69,18.69,0,0,1,35,50.1Z"/></g></g></svg>