<?xml version="1.0" encoding="utf-8"?>
<!-- Generator: Adobe Illustrator 20.0.0, SVG Export Plug-In . SVG Version: 6.00 Build 0)  -->
<svg version="1.1" id="Layer_1" xmlns="http://www.w3.org/2000/svg" xmlns:xlink="http://www.w3.org/1999/xlink" x="0px" y="0px"
	 viewBox="0 0 31.9 29.4" style="enable-background:new 0 0 31.9 29.4;" xml:space="preserve">
<g>
	<g>
		<path style="fill:#3F80C0;" d="M12.6,0.9c3.1-1.8,7.1-0.7,8.9,2.4c1.4,2.5,1.3,5.4-0.8,7.6l3.3,5.7c3-0.7,5.6,0.6,7,3.1
			c1.8,3.1,0.8,7.1-2.3,8.9c-3.1,1.8-7.1,0.7-8.9-2.4c-0.2-0.4-0.4-0.8-0.5-1.2l-4.3,0l0,0c0.4-1.4,0.4-2.8,0-4.2l4.3,0
			c0.3-0.8,0.5-1.5,1.3-2.2l-3.3-5.7c-1,0.3-1.7,0.2-2.6,0l-2.1,3.7l0,0.1c-1-1-2.3-1.8-3.6-2.1l2.1-3.7c-0.3-0.3-0.5-0.7-0.8-1.1
			C8.5,6.7,9.5,2.7,12.6,0.9z"/>
	</g>
	
		<ellipse transform="matrix(0.8652 -0.5014 0.5014 0.8652 -10.6028 6.348)" style="fill:#99CC00;" cx="6.5" cy="22.9" rx="6.5" ry="6.5"/>
</g>
</svg>
