<svg xmlns="http://www.w3.org/2000/svg" viewBox="0 0 61.4 75.8"><defs><style>.cls-1{fill:#5fa6df;}</style></defs><title>Asset 1</title><g id="Layer_2" data-name="Layer 2"><g id="Layer_1-2" data-name="Layer 1"><path class="cls-1" d="M30.7,75.8C14.4,75.8,0,67.2,0,57.4V49.3a3.07,3.07,0,0,1,2.1-3.1c.6-.2,2.3-.4,3.6,1.7,2.6,4.1,11.9,8.3,25,8.3s22.4-4.2,25-8.3c1.3-2.1,2.9-1.9,3.6-1.7a3.07,3.07,0,0,1,2.1,3.1v8.1C61.4,67.2,47,75.8,30.7,75.8ZM5,54.4v3c0,6.1,11.5,13.4,25.7,13.4s25.7-7.3,25.7-13.4v-3c-5.5,4.3-15.1,6.9-25.7,6.9S10.5,58.7,5,54.4Zm25.7-.9C13.2,53.5,0,46.9,0,38.2V28.7a2.86,2.86,0,0,1,2-2.9c.5-.2,2.2-.5,3.6,1.5,2.5,3.6,11.9,7.3,25.1,7.3s22.6-3.7,25.1-7.3c1.4-2,3.1-1.7,3.6-1.5a3,3,0,0,1,2,2.9v9.5C61.4,47,48.2,53.5,30.7,53.5ZM5,33.5v4.7c0,4.9,10.5,10.3,25.7,10.3S56.4,43,56.4,38.2V33.5c-5.5,3.8-15,6.2-25.7,6.2S10.5,37.3,5,33.5Zm25.7-1.6C15.8,31.9,0,27.1,0,18.2V13.1C0,4.5,15.4,0,30.7,0S61.4,4.5,61.4,13.1v5C61.4,27,45.6,31.9,30.7,31.9Zm0-27C15,4.9,5,9.7,5,13v5.1c0,3.6,10,8.7,25.7,8.7s25.7-5.2,25.7-8.7V13C56.4,9.7,46.4,4.9,30.7,4.9Z"/></g></g></svg>