<?xml version="1.0" encoding="utf-8"?>
<!-- Generator: Adobe Illustrator 20.0.0, SVG Export Plug-In . SVG Version: 6.00 Build 0)  -->
<svg version="1.1" id="Layer_1" xmlns="http://www.w3.org/2000/svg" xmlns:xlink="http://www.w3.org/1999/xlink" x="0px" y="0px"
	 viewBox="0 0 35.4 32.2" style="enable-background:new 0 0 35.4 32.2;" xml:space="preserve">
<g>
	<g>
		<g>
			<path style="fill:#FFA000;" d="M17,5.6L5.4,23.9c-0.3,0.5-0.9,1-1.4,1.2l-3.5,1.4c-0.5,0.2-0.6,0.7-0.3,1.1l4,4.5
				c0.4,0.4,0.9,0.3,1.1-0.1L7,28.6c0.3-0.5,0.9-1,1.4-1.1l0.8-0.2c0.7,1.7,2.5,2.6,4.3,2l4.9-1.5c1.7-0.5,2.7-2.3,2.4-4l8.3-2.5
				L17,5.6z M17.9,26.4L13,27.9c-1,0.3-2-0.2-2.5-1.1l8.8-2.6C19.4,25.2,18.8,26.1,17.9,26.4z"/>
			<path style="fill:#FFA000;" d="M35.2,18.6L21.4,0.3c-0.3-0.4-0.8-0.4-1.1,0l-2.2,3.5l12.9,16.9l3.8-1.1
				C35.4,19.5,35.6,19,35.2,18.6z"/>
		</g>
	</g>
</g>
</svg>
