<?xml version="1.0" encoding="utf-8"?>
<!-- Generator: Adobe Illustrator 21.1.0, SVG Export Plug-In . SVG Version: 6.00 Build 0)  -->
<svg version="1.1" id="Layer_1" xmlns="http://www.w3.org/2000/svg" xmlns:xlink="http://www.w3.org/1999/xlink" x="0px" y="0px"
	 viewBox="0 0 75.9 75.9" style="enable-background:new 0 0 75.9 75.9;" xml:space="preserve">
<style type="text/css">
	.st0{fill:#BFBFBF;}
</style>
<title>adoption</title>
<g id="Layer_2">
	<g id="Layer_1-2">
		<path class="st0" d="M53.2,75.9H37.8v-7.6c0-3.6-3-6.6-6.6-6.6s-6.6,3-6.6,6.6l0,0v7.6H9.3c-5.1,0-9.3-4.2-9.3-9.3V51.3h7.6
			c3.6,0,6.6-2.9,6.6-6.5v-0.1c0-3.6-3-6.6-6.6-6.6H0V22.8c0-5.1,4.2-9.3,9.3-9.3h11v-2.6c0-6,4.9-10.9,10.9-10.9
			s10.9,4.9,10.9,10.9v2.6h11c5.1,0,9.3,4.2,9.3,9.3v11H65c6,0,10.9,4.9,10.9,10.9S71,55.6,65,55.6h-2.6v11c0.1,5.1-4,9.2-9.1,9.3
			C53.3,75.9,53.2,75.9,53.2,75.9z M42.8,70.9h10.4c2.4-0.1,4.2-1.9,4.3-4.3v-16h7.6c3.3,0,5.9-2.6,5.9-5.9c0-3.3-2.6-5.9-5.9-5.9
			h-7.6v-16c0-2.4-1.9-4.3-4.3-4.3h-16v-7.6c0-3.3-2.6-5.9-5.9-5.9s-5.9,2.6-5.9,5.9v7.6h-16c-2.4,0-4.3,1.9-4.3,4.3v10.3h2.6
			c6.4,0,11.6,5.2,11.6,11.6S14.1,56.3,7.7,56.3H5.1v10.3c0,2.4,1.9,4.3,4.3,4.3h10.3v-2.6c0-6.4,5.2-11.6,11.6-11.6
			s11.6,5.2,11.6,11.6L42.8,70.9L42.8,70.9z"/>
	</g>
</g>
</svg>
