<?xml version="1.0" encoding="utf-8"?>
<!-- Generator: Adobe Illustrator 20.0.0, SVG Export Plug-In . SVG Version: 6.00 Build 0)  -->
<svg version="1.1" id="Layer_1" xmlns="http://www.w3.org/2000/svg" xmlns:xlink="http://www.w3.org/1999/xlink" x="0px" y="0px"
	 viewBox="0 0 28.4 31.9" style="enable-background:new 0 0 28.4 31.9;" xml:space="preserve">
<g>
	<path style="fill:#D3D3D3;" d="M14.2,31.9c-3.8,0-7.4-1.5-10.1-4.2C1.5,25,0,21.5,0,17.7c0-3.8,1.5-7.4,4.2-10.1
		c0.9-0.9,2.2-0.9,3.1,0c0.9,0.9,0.9,2.2,0,3.1c-1.9,1.9-2.9,4.3-2.9,7c0,2.6,1,5.1,2.9,7c1.9,1.9,4.3,2.9,7,2.9c2.6,0,5.1-1,7-2.9
		c1.9-1.9,2.9-4.3,2.9-7c0-2.6-1-5.1-2.9-7c-0.9-0.9-0.9-2.2,0-3.1c0.9-0.9,2.2-0.9,3.1,0c2.7,2.7,4.2,6.3,4.2,10.1
		c0,3.8-1.5,7.4-4.2,10.1C21.6,30.4,18,31.9,14.2,31.9L14.2,31.9z M14.2,31.9"/>
	<path style="fill:#D3D3D3;" d="M14.2,15.3c-1.2,0-2.2-1-2.2-2.2V2.2C12,1,13,0,14.2,0c1.2,0,2.2,1,2.2,2.2v10.9
		C16.4,14.3,15.4,15.3,14.2,15.3L14.2,15.3z M14.2,15.3"/>
</g>
</svg>
