<?xml version="1.0" encoding="utf-8"?>
<!-- Generator: Adobe Illustrator 21.0.0, SVG Export Plug-In . SVG Version: 6.00 Build 0)  -->
<svg version="1.1" id="Layer_1" xmlns="http://www.w3.org/2000/svg" xmlns:xlink="http://www.w3.org/1999/xlink" x="0px" y="0px"
	 viewBox="0 0 32.9 28.8" style="enable-background:new 0 0 32.9 28.8;" xml:space="preserve">
<style type="text/css">
	.st0{fill:#D3D3D3;}
</style>
<path class="st0" d="M4.1,28.8h12.3c-4.5,0-8.2-3.7-8.2-8.2v-4.1c8.2,0,8.2-8.2,8.2-8.2s0,8.2,8.2,8.2v4.1c0,4.5-3.7,8.2-8.2,8.2
	h12.3c2.3,0,4.1-1.8,4.1-4.1c-2.3,0-4.1-1.8-4.1-4.1v-8.2C28.8,5.5,23.2,0,16.4,0S4.1,5.5,4.1,12.3v8.2c0,2.3-1.8,4.1-4.1,4.1
	C0,26.9,1.8,28.8,4.1,28.8L4.1,28.8z"/>
</svg>
