<?xml version="1.0" encoding="utf-8"?>
<!-- Generator: Adobe Illustrator 21.1.0, SVG Export Plug-In . SVG Version: 6.00 Build 0)  -->
<svg version="1.1" id="Layer_1" xmlns="http://www.w3.org/2000/svg" xmlns:xlink="http://www.w3.org/1999/xlink" x="0px" y="0px"
	 viewBox="0 0 62.8 99.5" style="enable-background:new 0 0 62.8 99.5;" xml:space="preserve">
<style type="text/css">
	.st0{fill:#BFBFBF;}
</style>
<title>Asset 1</title>
<g id="Layer_2">
	<g id="Layer_1-2">
		<path class="st0" d="M42.5,99.5H20.2c-4.5,0-8.2-3.7-8.2-8.2V54.6c0-1.4,1.1-2.5,2.5-2.5s2.5,1.1,2.5,2.5v36.7
			c0,1.8,1.4,3.2,3.2,3.2h22.3c1.8,0,3.2-1.4,3.2-3.2V54.5c0-1.4,1.1-2.5,2.5-2.5s2.5,1.1,2.5,2.5v36.8C50.7,95.8,47,99.5,42.5,99.5
			z"/>
		<path class="st0" d="M48.7,48.9H14c-4.5,0-8.2-3.7-8.2-8.2v-14c0-4.5,3.7-8.2,8.2-8.2h34.7c4.5,0,8.2,3.7,8.2,8.2v14
			C56.9,45.2,53.2,48.9,48.7,48.9z M14,23.6c-1.8,0-3.2,1.4-3.2,3.2v14c0,1.8,1.4,3.2,3.2,3.2h34.7c1.8,0,3.2-1.4,3.2-3.2V26.7
			c0-1.8-1.4-3.2-3.2-3.2H14V23.6z"/>
		<circle class="st0" cx="21.4" cy="33.7" r="3.2"/>
		<circle class="st0" cx="41.4" cy="33.7" r="3.2"/>
		<circle class="st0" cx="31.2" cy="4.6" r="4.6"/>
		<path class="st0" d="M31.4,22.6c-1.4,0-2.5-1.1-2.5-2.5l0,0v-15c0-1.4,1.1-2.5,2.5-2.5s2.5,1.1,2.5,2.5v15
			C33.9,21.5,32.8,22.6,31.4,22.6L31.4,22.6z"/>
		<path class="st0" d="M14.2,79.7h-6C3.7,79.7,0,76,0,71.5V49.8c0-1.4,1.1-2.5,2.5-2.5l0,0c1.4,0,2.5,1.1,2.5,2.5l0,0v21.7
			c0,1.8,1.4,3.2,3.2,3.2h6c1.4,0,2.5,1.1,2.5,2.5S15.6,79.7,14.2,79.7z"/>
		<path class="st0" d="M54.6,79.7h-6c-1.4,0-2.5-1.1-2.5-2.5s1.1-2.5,2.5-2.5h6c1.8,0,3.2-1.4,3.2-3.2V49.8c0-1.4,1.1-2.5,2.5-2.5
			s2.5,1.1,2.5,2.5v21.7C62.7,76,59.1,79.6,54.6,79.7z"/>
	</g>
</g>
</svg>
