<?xml version="1.0" encoding="utf-8"?>
<!-- Generator: Adobe Illustrator 21.1.0, SVG Export Plug-In . SVG Version: 6.00 Build 0)  -->
<svg version="1.1" id="Layer_1" xmlns="http://www.w3.org/2000/svg" xmlns:xlink="http://www.w3.org/1999/xlink" x="0px" y="0px"
	 viewBox="0 0 77.8 77.8" style="enable-background:new 0 0 77.8 77.8;" xml:space="preserve">
<style type="text/css">
	.st0{fill:#BFBFBF;}
</style>
<title>Asset 1</title>
<g id="Layer_2">
	<g id="Layer_1-2">
		<path class="st0" d="M59.8,68H17.9c-4.5,0-8.2-3.7-8.2-8.2V17.9c0-4.5,3.7-8.2,8.2-8.2h41.9c4.5,0,8.2,3.7,8.2,8.2v41.9
			C68,64.3,64.3,68,59.8,68z M17.9,14.8c-1.8,0-3.2,1.4-3.2,3.2v41.9c0,1.8,1.4,3.2,3.2,3.2h41.9c1.8,0,3.2-1.4,3.2-3.2v-42
			c0-1.8-1.4-3.2-3.2-3.2L17.9,14.8L17.9,14.8z"/>
		<rect x="19.4" class="st0" width="5" height="12.5"/>
		<rect x="30.7" class="st0" width="5" height="12.5"/>
		<rect x="42" class="st0" width="5" height="12.5"/>
		<rect x="53.4" class="st0" width="5" height="12.5"/>
		<rect x="19.4" y="65.3" class="st0" width="5" height="12.5"/>
		<rect x="30.7" y="65.3" class="st0" width="5" height="12.5"/>
		<rect x="42" y="65.3" class="st0" width="5" height="12.5"/>
		<rect x="53.4" y="65.3" class="st0" width="5" height="12.5"/>
		<rect x="65.3" y="19.4" class="st0" width="12.5" height="5"/>
		<rect x="65.3" y="30.7" class="st0" width="12.5" height="5"/>
		<rect x="65.3" y="42" class="st0" width="12.5" height="5"/>
		<rect x="65.3" y="53.4" class="st0" width="12.5" height="5"/>
		<rect y="19.4" class="st0" width="12.5" height="5"/>
		<rect y="30.7" class="st0" width="12.5" height="5"/>
		<rect y="42" class="st0" width="12.5" height="5"/>
		<rect y="53.4" class="st0" width="12.5" height="5"/>
		<path class="st0" d="M54,54H23.8V23.8H54V54z M28.8,49H49V28.8H28.8V49z"/>
	</g>
</g>
</svg>
