<?xml version="1.0" encoding="utf-8"?>
<!-- Generator: Adobe Illustrator 21.1.0, SVG Export Plug-In . SVG Version: 6.00 Build 0)  -->
<svg version="1.1" id="Layer_1" xmlns="http://www.w3.org/2000/svg" xmlns:xlink="http://www.w3.org/1999/xlink" x="0px" y="0px"
	 viewBox="0 0 77.8 84.3" style="enable-background:new 0 0 77.8 84.3;" xml:space="preserve">
<style type="text/css">
	.st0{fill:#BFBFBF;}
</style>
<title>Asset 1</title>
<g id="Layer_2">
	<g id="Layer_1-2">
		<path class="st0" d="M38.9,84.3c-4.3,0-10.4-2.5-14.8-14.4c-0.1-0.3-0.2-0.7-0.1-1c-2.9,0.7-5.9,1-8.9,1.1
			c-8.2,0-11.9-3.4-13.6-6.3C-1.9,57.8,0.4,50.2,7.8,42c-0.3-0.2-0.7-0.4-0.9-0.7c-8.5-10.1-7.6-16.9-5.4-20.8
			c1.7-2.9,5.5-6.4,13.9-6.4c2.5,0,4.9,0.3,7.3,0.8c0.4,0,0.7,0.2,1,0.5C26.8,6.4,31.8,0,38.8,0c4.3,0,10.4,2.5,14.8,14.4
			c0.1,0.3,0.2,0.7,0.1,1c2.9-0.7,5.9-1,8.9-1.1c8.2,0,11.9,3.4,13.6,6.3c3.7,6.3,0.4,14.2-6.3,21.6c0.4,0.1,0.7,0.4,0.9,0.7
			c8.5,10.1,7.6,16.9,5.3,20.8c-1.7,2.9-5.5,6.4-13.9,6.4c-2.4-0.1-4.9-0.3-7.3-0.7c-0.4-0.1-0.7-0.2-1-0.4
			C50.7,78.8,45.4,84.3,38.9,84.3z M28.6,67.7c0.1,0.2,0.2,0.3,0.3,0.5c1.4,4.1,4.7,11.1,10,11.1c5.8,0,10.7-8.5,12.9-22.3
			c-1.1,0.7-2.1,1.3-3.2,1.9C42.3,62.6,35.6,65.5,28.6,67.7z M55.5,64.4H56c8.2,1.5,13.8,0.3,15.9-3.3c2.8-4.8-1.8-11.5-4.8-15.1
			c-0.1-0.2-0.2-0.4-0.4-0.5c-3.4,3.2-7,6.1-10.8,8.7c0.7,0.5,1.1,1.4,0.9,2.3c-0.4,2.6-0.9,5.2-1.5,7.8
			C55.4,64.4,55.4,64.4,55.5,64.4z M19.9,37.6C8.3,46.8,2.8,56,5.8,61.2c1.4,2.5,4.6,3.8,9.3,3.8c8.1,0,19.7-3.9,31-10.4
			C64.6,43.9,76,30,72,23c-1.4-2.5-4.6-3.8-9.3-3.8s-10.9,1.4-17.5,3.9c1.2,0.6,2.4,1.3,3.5,1.9c4.2,2.5,8.3,5.2,12.1,8.3
			c1.1,0.9,1.3,2.4,0.4,3.5s-2.4,1.3-3.5,0.4l0,0c-3.6-2.9-7.5-5.5-11.5-7.8c-3.9-2.3-8-4.2-12.2-5.9c-1.3-0.5-1.9-2-1.4-3.3
			s2-1.9,3.3-1.4l0,0c1.6,0.6,3.2,1.3,4.8,2.1c0.1-0.9,0.7-1.6,1.5-2c2.3-1,4.6-1.8,7-2.5c-0.1-0.2-0.2-0.3-0.2-0.5
			c-1.5-4.1-4.8-11.1-10.1-11.1c-7.9,0-14,16.3-14,37.2c0,4.6,0.3,9.2,1,13.7c0.2,1.4-0.7,2.6-2.1,2.8s-2.6-0.7-2.8-2.1
			c-0.7-4.8-1-9.6-1-14.5C19.9,40.5,19.9,39,19.9,37.6z M15.4,19.1c-4.8,0-8.1,1.4-9.5,3.9c-2.8,4.8,1.8,11.5,4.9,15.1
			c0.1,0.2,0.3,0.3,0.3,0.5c2.1-2,4.4-3.9,6.7-5.7c0.7-0.6,1.7-0.7,2.5-0.3c0.4-4.3,1.1-8.6,2.1-12.8h-0.6
			C19.7,19.3,17.6,19.1,15.4,19.1z"/>
		<circle class="st0" cx="38.9" cy="42.1" r="7.4"/>
	</g>
</g>
</svg>
