<?xml version="1.0" encoding="utf-8"?>
<!-- Generator: Adobe Illustrator 21.1.0, SVG Export Plug-In . SVG Version: 6.00 Build 0)  -->
<svg version="1.1" id="Layer_1" xmlns="http://www.w3.org/2000/svg" xmlns:xlink="http://www.w3.org/1999/xlink" x="0px" y="0px"
	 viewBox="0 0 83.9 81.4" style="enable-background:new 0 0 83.9 81.4;" xml:space="preserve">
<style type="text/css">
	.st0{fill:#BFBFBF;}
</style>
<title>Asset 1</title>
<g id="Layer_2">
	<g id="Layer_1-2">
		<path class="st0" d="M77.1,81.4H53.9c-1.4,0-2.5-1.1-2.5-2.5l0,0V57.3H32.5v21.6c0,1.4-1.1,2.5-2.5,2.5l0,0H6.8
			c-1.4,0-2.5-1.1-2.5-2.5l0,0V44.4H2.5c-1,0-1.9-0.6-2.3-1.5S0,41,0.7,40.2L40,0.9c0.3-0.3,0.6-0.6,1-0.7C41.2,0.1,41.5,0,41.7,0
			c0.4,0,0.9,0,1.3,0.2c0.4,0.1,0.8,0.4,1,0.8l39.2,39.1c0.7,0.7,0.9,1.8,0.5,2.7s-1.3,1.5-2.3,1.5h-1.8v34.6
			C79.6,80.3,78.6,81.4,77.1,81.4C77.2,81.4,77.1,81.4,77.1,81.4z M56.4,76.4h18.2V41.9c0-0.9,0.5-1.7,1.2-2.1L42,6L8.2,39.8
			c0.7,0.4,1.2,1.2,1.2,2.1v34.6h18.2V54.8c0-1.4,1.1-2.5,2.5-2.5l0,0H54c1.4,0,2.5,1.1,2.5,2.5l0,0L56.4,76.4L56.4,76.4z"/>
	</g>
</g>
</svg>
