<?xml version="1.0" encoding="utf-8"?>
<!-- Generator: Adobe Illustrator 20.0.0, SVG Export Plug-In . SVG Version: 6.00 Build 0)  -->
<svg version="1.1" id="Layer_1" xmlns="http://www.w3.org/2000/svg" xmlns:xlink="http://www.w3.org/1999/xlink" x="0px" y="0px"
	 viewBox="0 0 30.4 32.6" style="enable-background:new 0 0 30.4 32.6;" xml:space="preserve">
<g>
	<path style="fill:#D3D3D3;" d="M2.6,13.6c1,0,2-0.6,2.4-1.6c1.7-4,5.6-6.8,10.2-6.8c2.5,0,4.8,0.9,6.7,2.3l-1.5,0.2
		c-0.5,0.1-0.9,0.5-1,1c-0.1,0.5,0.2,1,0.7,1.2l8,3.6c0.4,0.2,0.8,0.1,1.1-0.1c0.3-0.2,0.5-0.6,0.5-0.9l0-8.8c0-0.5-0.3-0.9-0.8-1.1
		c-0.5-0.1-1,0-1.3,0.5l-1.1,1.7C23.7,1.8,19.6,0,15.2,0C8.5,0,2.7,4.1,0.2,10c-0.3,0.8-0.3,1.7,0.2,2.5C0.9,13.2,1.7,13.6,2.6,13.6
		L2.6,13.6z M2.6,13.6"/>
	<path style="fill:#D3D3D3;" d="M30,20.1c-0.5-0.7-1.3-1.2-2.2-1.2c-1,0-2,0.6-2.4,1.6c-1.7,4-5.6,6.8-10.2,6.8
		c-2.5,0-4.8-0.9-6.7-2.3l1.5-0.2c0.5-0.1,0.9-0.5,1-1c0.1-0.5-0.2-1-0.7-1.2l-8-3.6c-0.4-0.2-0.8-0.1-1.1,0.1
		c-0.3,0.2-0.5,0.6-0.5,0.9l0,8.8c0,0.5,0.3,0.9,0.8,1.1c0.5,0.1,1,0,1.3-0.5l1.1-1.7c2.9,2.9,7,4.7,11.4,4.7c6.7,0,12.5-4.1,15-10
		C30.5,21.8,30.5,20.9,30,20.1L30,20.1z M30,20.1"/>
</g>
</svg>
