<?xml version="1.0" encoding="utf-8"?>
<!-- Generator: Adobe Illustrator 20.0.0, SVG Export Plug-In . SVG Version: 6.00 Build 0)  -->
<svg version="1.1" id="Layer_1" xmlns="http://www.w3.org/2000/svg" xmlns:xlink="http://www.w3.org/1999/xlink" x="0px" y="0px"
	 viewBox="0 0 32.3 32.3" style="enable-background:new 0 0 32.3 32.3;" xml:space="preserve">
<path style="fill-rule:evenodd;clip-rule:evenodd;fill:#D3D3D3;" d="M32.2,14.4c-0.1-0.5-0.6-0.8-1-0.8c-1.5,0-2.8-0.9-3.3-2.2
	c-0.6-1.4-0.2-3,0.9-4c0.3-0.3,0.4-0.8,0.1-1.2c-0.8-1-1.6-1.8-2.6-2.6c-0.4-0.3-0.9-0.3-1.2,0.1c-1,1.1-2.7,1.5-4,0.9
	c-1.4-0.6-2.3-2-2.2-3.5c0-0.5-0.3-0.9-0.8-0.9c-1.2-0.1-2.4-0.1-3.6,0c-0.5,0.1-0.8,0.5-0.8,0.9c0.1,1.5-0.8,2.9-2.2,3.4
	c-1.3,0.5-3,0.1-4-0.9C7.1,3.2,6.5,3.2,6.2,3.5C5.2,4.2,4.3,5.1,3.6,6C3.3,6.4,3.3,6.9,3.7,7.3c1.1,1,1.5,2.6,0.9,4
	C4,12.6,2.6,13.5,1,13.5c-0.5,0-0.9,0.3-0.9,0.8c-0.1,1.2-0.1,2.4,0,3.7c0.1,0.5,0.6,0.8,1.1,0.8c1.4,0,2.8,0.8,3.3,2.2
	c0.6,1.4,0.2,3-0.9,4c-0.3,0.3-0.4,0.8-0.1,1.2c0.7,1,1.6,1.8,2.6,2.6C6.4,29,6.9,29,7.3,28.6c1-1.1,2.7-1.5,4-0.9
	c1.4,0.6,2.3,2,2.2,3.5c0,0.5,0.3,0.9,0.8,0.9c0.6,0.1,1.2,0.1,1.9,0.1c0.6,0,1.2,0,1.8-0.1c0.5-0.1,0.8-0.5,0.8-0.9
	c-0.1-1.5,0.8-2.9,2.2-3.4c1.3-0.5,3-0.1,4,0.9c0.3,0.3,0.8,0.4,1.2,0.1c1-0.8,1.8-1.6,2.6-2.6c0.3-0.4,0.3-0.9-0.1-1.2
	c-1.1-1-1.5-2.6-0.9-4c0.5-1.3,1.9-2.2,3.3-2.2l0.2,0c0.5,0,0.9-0.3,0.9-0.8C32.3,16.8,32.3,15.6,32.2,14.4L32.2,14.4z M16.2,21.6
	c-3,0-5.4-2.4-5.4-5.4c0-3,2.4-5.4,5.4-5.4c3,0,5.4,2.4,5.4,5.4C21.6,19.1,19.1,21.6,16.2,21.6L16.2,21.6z M16.2,21.6"/>
</svg>
