<?xml version="1.0" encoding="utf-8"?>
<!-- Generator: Adobe Illustrator 21.1.0, SVG Export Plug-In . SVG Version: 6.00 Build 0)  -->
<svg version="1.1" id="Layer_1" xmlns="http://www.w3.org/2000/svg" xmlns:xlink="http://www.w3.org/1999/xlink" x="0px" y="0px"
	 viewBox="0 0 75.7 75.9" style="enable-background:new 0 0 75.7 75.9;" xml:space="preserve">
<style type="text/css">
	.st0{fill:#BFBFBF;}
</style>
<title>Asset 1</title>
<g id="Layer_2">
	<g id="Layer_1-2">
		<path class="st0" d="M37.8,75.9c-1.5,0-2.9-0.1-4.4-0.3c-2.3-0.3-4.1-2.3-3.9-4.7c0.1-2.3-1.2-4.4-3.3-5.2c-2.1-0.8-4.5-0.2-6,1.4
			c-1.6,1.8-4.3,2-6.1,0.5c-2.2-1.8-4.2-3.9-6-6.1c-1.4-1.9-1.2-4.5,0.5-6.1c1.7-1.5,2.2-3.9,1.4-6c-0.8-2-2.7-3.3-4.9-3.3l0,0
			c-2.4,0.1-4.5-1.6-4.9-4c-0.3-2.9-0.3-5.7,0-8.6c0.2-2.3,2.2-4.1,4.6-3.9l0,0c2.3,0.1,4.4-1.2,5.3-3.3c0.9-2.1,0.3-4.5-1.4-6
			c-1.7-1.6-2-4.2-0.5-6.1c1.8-2.2,3.9-4.3,6.1-6.1c1.9-1.4,4.5-1.2,6.1,0.5c1.5,1.6,3.9,2.2,6,1.4s3.4-2.9,3.3-5.2
			c0-2.3,1.7-4.3,4-4.6c2.8-0.3,5.7-0.3,8.5,0c2.4,0.2,4.1,2.3,3.9,4.7c-0.1,2.3,1.2,4.4,3.3,5.2s4.5,0.2,6-1.4
			c1.6-1.8,4.3-2,6.1-0.5c2.2,1.8,4.2,3.9,6,6.1c1.4,1.9,1.2,4.5-0.5,6.1c-1.6,1.5-2.2,3.9-1.4,6c0.8,2,2.8,3.3,5,3.3
			c2.4,0,4.4,1.7,4.8,4c0.3,2.9,0.3,5.7,0,8.6l0,0c-0.3,2.3-2.4,4-4.7,3.9h-0.4c-2.2,0-4.1,1.3-4.9,3.3c-0.9,2.1-0.3,4.5,1.4,6
			c1.8,1.6,2,4.3,0.5,6.1c-1.8,2.2-3.9,4.3-6.1,6.1c-1.9,1.4-4.5,1.2-6.1-0.5c-1.5-1.6-3.9-2.2-6-1.4c-2.1,0.8-3.4,2.9-3.3,5.2
			c0,2.3-1.7,4.3-4,4.6C40.5,75.8,39.2,75.9,37.8,75.9z M34.5,70.7c2.1,0.2,4.3,0.2,6.4,0c0-5.7,4.6-10.3,10.3-10.3
			c2.7,0,5.4,1.1,7.3,3.1c1.7-1.4,3.2-2.9,4.6-4.6c-3-2.9-3.9-7.4-2.2-11.3c1.6-3.8,5.4-6.3,9.6-6.3h0.1c0.2-2.2,0.2-4.3,0-6.5
			c-4.2-0.1-7.9-2.6-9.5-6.4s-0.7-8.2,2.2-11.2c-1.4-1.7-2.9-3.2-4.5-4.6c-3,2.9-7.4,3.8-11.3,2.3c-3.9-1.6-6.4-5.4-6.3-9.6
			c-2.1-0.2-4.3-0.2-6.4,0c-0.1,4.1-2.6,7.9-6.4,9.5c-3.9,1.4-8.3,0.4-11.3-2.4c-1.7,1.4-3.2,2.9-4.6,4.6c3,2.9,3.9,7.4,2.2,11.3
			c-1.7,3.8-5.4,6.3-9.6,6.3c-0.2,2.2-0.2,4.3,0,6.5c5.7,0,10.3,4.7,10.3,10.4c0,2.7-1.1,5.3-3,7.2c1.4,1.7,2.9,3.2,4.5,4.6
			c3-2.9,7.4-3.8,11.3-2.3C32.1,62.7,34.6,66.5,34.5,70.7z"/>
		<path class="st0" d="M37.9,52.4c-7.9,0-14.3-6.4-14.3-14.3S30,23.8,37.9,23.8s14.3,6.4,14.3,14.3l0,0C52.2,46,45.8,52.4,37.9,52.4
			z M37.9,28.7c-5.1,0-9.3,4.2-9.3,9.3s4.2,9.3,9.3,9.3s9.3-4.2,9.3-9.3l0,0C47.2,32.9,43,28.7,37.9,28.7z"/>
	</g>
</g>
</svg>
