<?xml version="1.0" encoding="utf-8"?>
<!-- Generator: Adobe Illustrator 21.1.0, SVG Export Plug-In . SVG Version: 6.00 Build 0)  -->
<svg version="1.1" id="Layer_1" xmlns="http://www.w3.org/2000/svg" xmlns:xlink="http://www.w3.org/1999/xlink" x="0px" y="0px"
	 viewBox="0 0 108.5 108.5" style="enable-background:new 0 0 108.5 108.5;" xml:space="preserve">
<style type="text/css">
	.st0{fill:none;stroke:#BFBFBF;stroke-width:5;stroke-linecap:round;stroke-miterlimit:10;}
</style>
<title>Asset 1</title>
<g id="Layer_2">
	<g id="Layer_1-2">
		<path class="st0" d="M54.3,68.5c-7.8,0-14.2-6.4-14.2-14.2s6.4-14.2,14.2-14.2s14.2,6.4,14.2,14.2S62.1,68.5,54.3,68.5z"/>
		<path class="st0" d="M54.3,24.1c-6,0-10.8-4.8-10.8-10.8S48.3,2.5,54.3,2.5s10.8,4.8,10.8,10.8l0,0C65.1,19.3,60.3,24.1,54.3,24.1
			z"/>
		<line class="st0" x1="54.3" y1="22.3" x2="54.3" y2="34.1"/>
		<path class="st0" d="M54.3,84.4c6,0,10.8,4.8,10.8,10.8S60.3,106,54.3,106s-10.8-4.8-10.8-10.8l0,0C43.5,89.2,48.3,84.4,54.3,84.4
			z"/>
		<line class="st0" x1="54.3" y1="86.3" x2="54.3" y2="74.5"/>
		<path class="st0" d="M84.4,54.3c0-6,4.8-10.8,10.8-10.8S106,48.3,106,54.3s-4.8,10.8-10.8,10.8l0,0C89.2,65.1,84.4,60.3,84.4,54.3
			z"/>
		<line class="st0" x1="86.3" y1="54.3" x2="74.5" y2="54.3"/>
		<path class="st0" d="M24.1,54.3c0,6-4.8,10.8-10.8,10.8S2.5,60.3,2.5,54.3s4.8-10.8,10.8-10.8l0,0C19.3,43.5,24.1,48.3,24.1,54.3z
			"/>
		<line class="st0" x1="22.3" y1="54.3" x2="34.1" y2="54.3"/>
		<path class="st0" d="M70.7,37.9c-3.3-3.3-3.3-8.5,0-11.8s8.5-3.3,11.8,0s3.3,8.5,0,11.8C79.2,41.1,74,41.1,70.7,37.9z"/>
		<line class="st0" x1="71.7" y1="36.9" x2="65.3" y2="43.3"/>
		<path class="st0" d="M37.9,70.7c3.3,3.3,3.3,8.5,0,11.8s-8.5,3.3-11.8,0s-3.3-8.5,0-11.8C29.3,67.4,34.5,67.4,37.9,70.7
			C37.8,70.6,37.9,70.7,37.9,70.7z"/>
		<line class="st0" x1="36.9" y1="71.7" x2="43.3" y2="65.3"/>
		<path class="st0" d="M70.7,70.7c3.3-3.3,8.5-3.3,11.8,0s3.3,8.5,0,11.8s-8.5,3.3-11.8,0c-3.3-3.2-3.3-8.4-0.1-11.7L70.7,70.7z"/>
		<line class="st0" x1="71.7" y1="71.7" x2="65.3" y2="65.3"/>
		<path class="st0" d="M37.9,37.9c-3.3,3.3-8.5,3.3-11.8,0s-3.3-8.5,0-11.8s8.5-3.3,11.8,0C41.1,29.4,41.1,34.6,37.9,37.9z"/>
		<line class="st0" x1="36.9" y1="36.9" x2="43.3" y2="43.3"/>
	</g>
</g>
</svg>
