<?xml version="1.0" encoding="utf-8"?>
<!-- Generator: Adobe Illustrator 20.0.0, SVG Export Plug-In . SVG Version: 6.00 Build 0)  -->
<svg version="1.1" id="Layer_1" xmlns="http://www.w3.org/2000/svg" xmlns:xlink="http://www.w3.org/1999/xlink" x="0px" y="0px"
	 viewBox="0 0 31.4 18.3" style="enable-background:new 0 0 31.4 18.3;" xml:space="preserve">
<g>
	<path style="fill:#D3D3D3;" d="M21.1,7.1c0,1.3-1.1,2.4-2.4,2.4s-2.4-1.1-2.4-2.4c0-1.3,1.1-2.4,2.4-2.4S21.1,5.7,21.1,7.1z"/>
	<path style="fill:#D3D3D3;" d="M15.7,0C7,0,0,9.1,0,9.1s7,9.1,15.7,9.1c8.7,0,15.7-9.1,15.7-9.1S24.3,0,15.7,0z M15.7,16.3
		c-3.9,0-7.2-3.2-7.2-7.2c0-3.9,3.2-7.2,7.2-7.2c4,0,7.2,3.2,7.2,7.2C22.8,13.1,19.6,16.3,15.7,16.3z"/>
</g>
</svg>
