<?xml version="1.0" encoding="utf-8"?>
<!-- Generator: Adobe Illustrator 21.1.0, SVG Export Plug-In . SVG Version: 6.00 Build 0)  -->
<svg version="1.1" id="Layer_1" xmlns="http://www.w3.org/2000/svg" xmlns:xlink="http://www.w3.org/1999/xlink" x="0px" y="0px"
	 viewBox="0 0 54 93.4" style="enable-background:new 0 0 54 93.4;" xml:space="preserve">
<style type="text/css">
	.st0{fill:#BFBFBF;}
</style>
<title>Asset 1</title>
<g id="Layer_2">
	<g id="Layer_1-2">
		<path class="st0" d="M27,33.6c-9.3,0-16.8-7.5-16.8-16.8S17.7,0,27,0s16.8,7.5,16.8,16.8S36.3,33.6,27,33.6L27,33.6z M27,5
			c-6.5,0-11.8,5.3-11.8,11.8S20.5,28.6,27,28.6s11.8-5.3,11.8-11.8l0,0C38.8,10.3,33.5,5,27,5z"/>
		<path class="st0" d="M12.4,93.4c-1.2,0-2.2-0.8-2.4-2L0,45.5v-0.3c0-4,3.2-7.2,7.1-7.2c0,0,0,0,0.1,0h39.6c4,0,7.2,3.2,7.2,7.1
			c0,0,0,0,0,0.1v0.4l-8.3,45.7c-0.2,1.4-1.5,2.2-2.9,2s-2.2-1.5-2-2.9L49,45c-0.1-1.1-1.1-2-2.2-2H7.2c-1.1,0-2.1,0.9-2.2,2
			l9.8,45.3c0.3,1.3-0.6,2.7-1.9,3C12.8,93.4,12.6,93.4,12.4,93.4z"/>
		<path class="st0" d="M27,83.1c-1.4,0-2.5-1.1-2.5-2.5l0,0V48.2c0-1.4,1.1-2.5,2.5-2.5s2.5,1.1,2.5,2.5v32.3
			C29.5,81.9,28.4,83.1,27,83.1z"/>
	</g>
</g>
</svg>
