<?xml version="1.0" encoding="utf-8"?>
<!-- Generator: Adobe Illustrator 21.1.0, SVG Export Plug-In . SVG Version: 6.00 Build 0)  -->
<svg version="1.1" id="Layer_1" xmlns="http://www.w3.org/2000/svg" xmlns:xlink="http://www.w3.org/1999/xlink" x="0px" y="0px"
	 viewBox="0 0 37.8 80.7" style="enable-background:new 0 0 37.8 80.7;" xml:space="preserve">
<style type="text/css">
	.st0{fill:#BFBFBF;}
</style>
<title>Asset 1</title>
<g id="Layer_2">
	<g id="Layer_1-2">
		<path class="st0" d="M26.7,80.7h-17v-9.4l-5.6-4.4c-1-0.7-1.8-1.7-2.2-2.9c-0.4-0.9-0.6-2-0.6-3V43.9h33.9V61
			c0,1.1-0.2,2.1-0.6,3.1c-0.5,1.1-1.2,2-2.1,2.8L32.4,67l-5.6,4.4L26.7,80.7z M14.7,75.7h7v-6.9l7.5-5.9c0.4-0.2,0.6-0.6,0.8-1
			c0.1-0.4,0.2-0.8,0.2-1.2v-12H6.3v12.1c0,0.4,0.1,0.7,0.2,1.1c0.2,0.4,0.5,0.7,0.8,1l7.4,5.9C14.7,68.8,14.7,75.7,14.7,75.7z"/>
		<path class="st0" d="M2.8,15.8c-1.1,0-2.1-0.8-2.4-1.9c-0.3-1.3,0.5-2.6,1.8-3l20.7-5.1V2.5C22.9,1.1,24,0,25.4,0s2.5,1.1,2.5,2.5
			v5.2c0,1.1-0.7,2.2-1.9,2.4L3.4,15.6C3.2,15.8,3,15.8,2.8,15.8z"/>
		<path class="st0" d="M2.5,31.2c-1.1,0-2.1-0.8-2.4-1.9c-0.3-1.3,0.5-2.6,1.8-3l32.3-8c1.3-0.3,2.7,0.5,3,1.8s-0.5,2.7-1.8,3
			l-32.3,8C2.9,31.2,2.7,31.2,2.5,31.2z"/>
		<path class="st0" d="M12.6,56.5L12.6,56.5c-1.4,0-2.5-1.1-2.5-2.5l0,0l0.1-10.7l-7.4-5.1c-0.8-0.6-1.2-1.5-1-2.5s0.9-1.8,1.9-2
			L34.8,26c1.3-0.3,2.7,0.5,3,1.8s-0.5,2.7-1.8,3l-25.7,6.4l3.9,2.7c0.7,0.5,1.1,1.3,1.1,2.1l-0.1,12C15.1,55.4,14,56.5,12.6,56.5z"
			/>
		<path class="st0" d="M24,56.5c-1.4,0-2.5-1.1-2.5-2.5l0,0l-0.1-12c0-0.8,0.3-1.5,1-2l8.5-6.6c1.1-0.9,2.6-0.7,3.5,0.4
			s0.7,2.6-0.4,3.5l-7.5,5.9L26.6,54C26.5,55.4,25.4,56.5,24,56.5z"/>
		<path class="st0" d="M2.7,23.5c-1.1,0-2.1-0.8-2.4-1.9c-0.3-1.3,0.5-2.6,1.8-3l32.3-8c1.3-0.3,2.7,0.5,3,1.8s-0.5,2.7-1.8,3l0,0
			l-32.3,8C3.1,23.5,2.9,23.5,2.7,23.5z"/>
		<path class="st0" d="M26.7,80.7h-17v-9.4l-5.6-4.4c-1-0.7-1.8-1.7-2.2-2.9c-0.4-0.9-0.6-2-0.6-3V43.9h33.9V61
			c0,1.1-0.2,2.1-0.6,3.1c-0.5,1.1-1.2,2-2.1,2.8L32.4,67l-5.6,4.4L26.7,80.7z M14.7,75.7h7v-6.9l7.5-5.9c0.4-0.2,0.6-0.6,0.8-1
			c0.1-0.4,0.2-0.8,0.2-1.2v-12H6.3v12.1c0,0.4,0.1,0.7,0.2,1.1c0.2,0.4,0.5,0.7,0.8,1l7.4,5.9C14.7,68.8,14.7,75.7,14.7,75.7z"/>
		<path class="st0" d="M2.8,15.8c-1.1,0-2.1-0.8-2.4-1.9c-0.3-1.3,0.5-2.6,1.8-3l20.7-5.1V2.5C22.9,1.1,24,0,25.4,0s2.5,1.1,2.5,2.5
			v5.2c0,1.1-0.7,2.2-1.9,2.4L3.4,15.6C3.2,15.8,3,15.8,2.8,15.8z"/>
		<path class="st0" d="M2.5,31.2c-1.1,0-2.1-0.8-2.4-1.9c-0.3-1.3,0.5-2.6,1.8-3l32.3-8c1.3-0.3,2.7,0.5,3,1.8s-0.5,2.7-1.8,3
			l-32.3,8C2.9,31.2,2.7,31.2,2.5,31.2z"/>
		<path class="st0" d="M12.6,56.5L12.6,56.5c-1.4,0-2.5-1.1-2.5-2.5l0,0l0.1-10.7l-7.4-5.1c-0.8-0.6-1.2-1.5-1-2.5s0.9-1.8,1.9-2
			L34.8,26c1.3-0.3,2.7,0.5,3,1.8s-0.5,2.7-1.8,3l-25.7,6.4l3.9,2.7c0.7,0.5,1.1,1.3,1.1,2.1l-0.1,12C15.1,55.4,14,56.5,12.6,56.5z"
			/>
		<path class="st0" d="M24,56.5c-1.4,0-2.5-1.1-2.5-2.5l0,0l-0.1-12c0-0.8,0.3-1.5,1-2l8.5-6.6c1.1-0.9,2.6-0.7,3.5,0.4
			s0.7,2.6-0.4,3.5l-7.5,5.9L26.6,54C26.5,55.4,25.4,56.5,24,56.5z"/>
		<path class="st0" d="M2.7,23.5c-1.1,0-2.1-0.8-2.4-1.9c-0.3-1.3,0.5-2.6,1.8-3l32.3-8c1.3-0.3,2.7,0.5,3,1.8s-0.5,2.7-1.8,3l0,0
			l-32.3,8C3.1,23.5,2.9,23.5,2.7,23.5z"/>
		<path class="st0" d="M26.7,80.7h-17v-9.4l-5.6-4.4c-1-0.7-1.8-1.7-2.2-2.9c-0.4-0.9-0.6-2-0.6-3V43.9h33.9V61
			c0,1.1-0.2,2.1-0.6,3.1c-0.5,1.1-1.2,2-2.1,2.8L32.4,67l-5.6,4.4L26.7,80.7z M14.7,75.7h7v-6.9l7.5-5.9c0.4-0.2,0.6-0.6,0.8-1
			c0.1-0.4,0.2-0.8,0.2-1.2v-12H6.3v12.1c0,0.4,0.1,0.7,0.2,1.1c0.2,0.4,0.5,0.7,0.8,1l7.4,5.9C14.7,68.8,14.7,75.7,14.7,75.7z"/>
		<path class="st0" d="M2.8,15.8c-1.1,0-2.1-0.8-2.4-1.9c-0.3-1.3,0.5-2.6,1.8-3l20.7-5.1V2.5C22.9,1.1,24,0,25.4,0s2.5,1.1,2.5,2.5
			v5.2c0,1.1-0.7,2.2-1.9,2.4L3.4,15.6C3.2,15.8,3,15.8,2.8,15.8z"/>
		<path class="st0" d="M2.5,31.2c-1.1,0-2.1-0.8-2.4-1.9c-0.3-1.3,0.5-2.6,1.8-3l32.3-8c1.3-0.3,2.7,0.5,3,1.8s-0.5,2.7-1.8,3
			l-32.3,8C2.9,31.2,2.7,31.2,2.5,31.2z"/>
		<path class="st0" d="M12.6,56.5L12.6,56.5c-1.4,0-2.5-1.1-2.5-2.5l0,0l0.1-10.7l-7.4-5.1c-0.8-0.6-1.2-1.5-1-2.5s0.9-1.8,1.9-2
			L34.8,26c1.3-0.3,2.7,0.5,3,1.8s-0.5,2.7-1.8,3l-25.7,6.4l3.9,2.7c0.7,0.5,1.1,1.3,1.1,2.1l-0.1,12C15.1,55.4,14,56.5,12.6,56.5z"
			/>
		<path class="st0" d="M24,56.5c-1.4,0-2.5-1.1-2.5-2.5l0,0l-0.1-12c0-0.8,0.3-1.5,1-2l8.5-6.6c1.1-0.9,2.6-0.7,3.5,0.4
			s0.7,2.6-0.4,3.5l-7.5,5.9L26.6,54C26.5,55.4,25.4,56.5,24,56.5z"/>
		<path class="st0" d="M2.7,23.5c-1.1,0-2.1-0.8-2.4-1.9c-0.3-1.3,0.5-2.6,1.8-3l32.3-8c1.3-0.3,2.7,0.5,3,1.8s-0.5,2.7-1.8,3l0,0
			l-32.3,8C3.1,23.5,2.9,23.5,2.7,23.5z"/>
	</g>
</g>
</svg>
