<?xml version="1.0" encoding="utf-8"?>
<!-- Generator: Adobe Illustrator 20.0.0, SVG Export Plug-In . SVG Version: 6.00 Build 0)  -->
<svg version="1.1" id="Layer_1" xmlns="http://www.w3.org/2000/svg" xmlns:xlink="http://www.w3.org/1999/xlink" x="0px" y="0px"
	 viewBox="0 0 20.4 35.9" style="enable-background:new 0 0 20.4 35.9;" xml:space="preserve">
<g>
	<path style="fill:#D3D3D3;" d="M20.4,18.9h-3c0,4-3.2,7.2-7.2,7.2c-4,0-7.2-3.2-7.2-7.2H0c0,5.1,3.8,9.4,8.7,10.1v6.4
		c0,0.3,0.3,0.5,0.6,0.5H11c0.4,0,0.6-0.2,0.6-0.5V29C16.6,28.3,20.4,24.1,20.4,18.9L20.4,18.9z M20.4,18.9"/>
	<path style="fill:#D3D3D3;" d="M16.5,6.3c0-3.5-2.8-6.3-6.3-6.3C6.7,0,3.9,2.8,3.9,6.3v12.1c0,3.5,2.8,6.3,6.3,6.3
		c3.5,0,6.3-2.8,6.3-6.3V6.3z M16.5,6.3"/>
</g>
</svg>
