<?xml version="1.0" encoding="utf-8"?>
<!-- Generator: Adobe Illustrator 20.0.0, SVG Export Plug-In . SVG Version: 6.00 Build 0)  -->
<svg version="1.1" id="Layer_1" xmlns="http://www.w3.org/2000/svg" xmlns:xlink="http://www.w3.org/1999/xlink" x="0px" y="0px"
	 viewBox="0 0 22.8 28.7" style="enable-background:new 0 0 22.8 28.7;" xml:space="preserve">
<g>
	<path style="fill:#D3D3D3;" d="M22.4,19c-1.4,2.2-5.8,3.9-11,3.9c-5.2,0-9.6-1.6-11-3.9C0.2,18.5,0,18.8,0,19v3.3
		c0,3.2,5.1,6.4,11.4,6.4s11.4-3.3,11.4-6.4V19C22.8,18.8,22.7,18.5,22.4,19L22.4,19z M22.4,10.6c-1.4,2-5.8,3.4-11,3.4
		c-5.2,0-9.6-1.4-11-3.4c-0.3-0.4-0.4-0.2-0.4,0v3.8c0,2.9,5.1,5.2,11.4,5.2s11.4-2.3,11.4-5.2v-3.8C22.8,10.5,22.7,10.2,22.4,10.6
		L22.4,10.6z M11.4,0C5.1,0,0,1.9,0,4.3v2.1c0,2.5,5.1,4.6,11.4,4.6s11.4-2,11.4-4.6V4.3C22.8,1.9,17.7,0,11.4,0L11.4,0z M11.4,0"/>
</g>
</svg>
