<?xml version="1.0" encoding="utf-8"?>
<!-- Generator: Adobe Illustrator 21.1.0, SVG Export Plug-In . SVG Version: 6.00 Build 0)  -->
<svg version="1.1" id="Layer_1" xmlns="http://www.w3.org/2000/svg" xmlns:xlink="http://www.w3.org/1999/xlink" x="0px" y="0px"
	 viewBox="0 0 85.6 85.6" style="enable-background:new 0 0 85.6 85.6;" xml:space="preserve">
<style type="text/css">
	.st0{fill:#BFBFBF;}
</style>
<title>Asset 1</title>
<g id="Layer_2">
	<g id="Layer_1-2">
		<path class="st0" d="M42.8,85.6L42.8,85.6c-1.1,0-2.1-0.7-2.4-1.8L34,63l-11.5,3.1c-0.8,0.2-1.8,0-2.4-0.6s-0.9-1.6-0.6-2.4
			l3.1-11.5L1.8,45.2C0.7,44.9,0,43.9,0,42.8c0-1.1,0.7-2.1,1.8-2.4L22.6,34l-3.1-11.5c-0.2-0.8,0-1.8,0.6-2.4s1.6-0.9,2.4-0.6
			L34,22.6l6.4-20.8C40.7,0.7,41.7,0,42.8,0s2.1,0.7,2.4,1.8L46,4.4l0,0l5.6,18.2L63,19.4c0.8-0.2,1.8,0,2.4,0.6s0.9,1.6,0.6,2.4
			L63,34l20.8,6.4c1.1,0.3,1.8,1.3,1.8,2.4c0,1.1-0.7,2.1-1.8,2.4L63,51.6L66.1,63c0.2,0.8,0,1.8-0.6,2.4s-1.6,0.9-2.4,0.6l-11.5-3
			l-6.4,20.8C44.9,84.9,43.9,85.6,42.8,85.6z M35.7,57.5c1.1,0,2.1,0.7,2.4,1.8l4.7,15.4l4.7-15.4c0.4-1.3,1.7-2,3-1.7l9.6,2.6
			l-2.6-9.6c-0.4-1.3,0.4-2.6,1.7-3l0,0l15.4-4.7l-15.4-4.7c-1.3-0.4-2-1.7-1.7-3l2.6-9.6L50.5,28c-1.3,0.4-2.6-0.4-3-1.7l0,0
			L42.8,11l-4.7,15.4c-0.4,1.3-1.7,2-3,1.7l-9.6-2.6L28,35c0.4,1.3-0.4,2.6-1.7,3l0,0L11,42.8l15.4,4.7c1.3,0.4,2,1.7,1.7,3
			l-2.6,9.6l9.6-2.6H35.7z"/>
		<path class="st0" d="M42.8,83.1c-1.1,0-2.1-0.7-2.4-1.8l-8.5-27.7L4.2,45.1c-1.1-0.3-1.8-1.3-1.8-2.4c0-1.1,0.7-2.1,1.8-2.4
			l27.7-8.5l8.5-27.7c0.3-1.1,1.3-1.8,2.4-1.8c1.1,0,2.1,0.7,2.4,1.8l8.5,27.7l27.7,8.5c1.1,0.3,1.8,1.3,1.8,2.4
			c0,1.1-0.7,2.1-1.8,2.4l-27.7,8.5l-8.5,27.7C44.9,82.4,43.9,83.1,42.8,83.1z M13.4,42.8l21.2,6.5c0.8,0.3,1.4,0.9,1.7,1.7
			l6.5,21.2L49.3,51c0.2-0.8,0.8-1.4,1.6-1.7l0.5-0.1l20.7-6.4l-21.2-6.5c-0.8-0.3-1.4-0.9-1.7-1.7l-6.5-21.2l-6.5,21.2
			c-0.3,0.8-0.9,1.4-1.7,1.7L13.4,42.8z"/>
	</g>
</g>
</svg>
