<?xml version="1.0" encoding="utf-8"?>
<!-- Generator: Adobe Illustrator 21.1.0, SVG Export Plug-In . SVG Version: 6.00 Build 0)  -->
<svg version="1.1" id="Layer_1" xmlns="http://www.w3.org/2000/svg" xmlns:xlink="http://www.w3.org/1999/xlink" x="0px" y="0px"
	 viewBox="0 0 75.9 77" style="enable-background:new 0 0 75.9 77;" xml:space="preserve">
<style type="text/css">
	.st0{fill:#BFBFBF;}
</style>
<title>Asset 1</title>
<g id="Layer_2">
	<g id="Layer_1-2">
		<path class="st0" d="M34.5,77C15.4,77,0,61.6,0,42.5S15.4,8,34.5,8H37v32h32v2.5C69,61.6,53.6,77,34.5,77z M32,13.1
			C15.8,14.5,3.7,28.8,5.1,45S20.8,73.3,37,71.9C51.3,70.7,62.7,59.3,63.9,45H32V13.1z"/>
		<path class="st0" d="M75.9,37h-37V0h2.5c19,0,34.5,15.5,34.5,34.5V37z M43.9,32h26.9C69.6,17.7,58.2,6.3,43.9,5.1V32z"/>
	</g>
</g>
</svg>
