<?xml version="1.0" encoding="utf-8"?>
<!-- Generator: Adobe Illustrator 20.0.0, SVG Export Plug-In . SVG Version: 6.00 Build 0)  -->
<svg version="1.1" id="Layer_1" xmlns="http://www.w3.org/2000/svg" xmlns:xlink="http://www.w3.org/1999/xlink" x="0px" y="0px"
	 viewBox="0 0 30.7 30.7" style="enable-background:new 0 0 30.7 30.7;" xml:space="preserve">
<path style="fill:#D3D3D3;" d="M15.4,0C6.9,0,0,6.9,0,15.4c0,8.5,6.9,15.4,15.4,15.4c8.5,0,15.4-6.9,15.4-15.4
	C30.7,6.9,23.9,0,15.4,0L15.4,0z M21.7,9.1c1.2,0,2.1,0.9,2.1,2.1c0,1.2-0.9,2.1-2.1,2.1c-1.2,0-2.1-0.9-2.1-2.1
	C19.6,10,20.5,9.1,21.7,9.1L21.7,9.1z M9.1,9.1c1.2,0,2.1,0.9,2.1,2.1c0,1.2-0.9,2.1-2.1,2.1c-1.2,0-2.1-0.9-2.1-2.1
	C7,10,7.9,9.1,9.1,9.1L9.1,9.1z M15.4,26.6c-4.8,0-8.8-3.1-10.1-7.5h20.2C24.1,23.5,20.1,26.6,15.4,26.6L15.4,26.6z M15.4,26.6"/>
</svg>
