<svg xmlns="http://www.w3.org/2000/svg" viewBox="0 0 97.65 97.87"><defs><style>.cls-1{fill:#bfbfbf;}</style></defs><title>Asset 1</title><g id="Layer_2" data-name="Layer 2"><g id="Layer_1-2" data-name="Layer 1"><path class="cls-1" d="M77,86.48a6.35,6.35,0,0,1-4.9-2.1,21.83,21.83,0,0,1-2.6-3.4,22.8,22.8,0,0,0-2.3-3,2.54,2.54,0,0,1,2.7-4.3,14.94,14.94,0,0,1,3.8,4.4,21,21,0,0,0,2,2.7,2,2,0,0,0,2,.5,5.7,5.7,0,0,0,3.7-3.7,2,2,0,0,0-.5-2,14.56,14.56,0,0,0-2.7-2,14.94,14.94,0,0,1-4.4-3.8,2.54,2.54,0,0,1,4.3-2.7,9.73,9.73,0,0,0,3,2.3,21.83,21.83,0,0,1,3.4,2.6,6.9,6.9,0,0,1,1.8,6.9,11.1,11.1,0,0,1-7.3,7.3A4.88,4.88,0,0,1,77,86.48Zm-56.2,0a6.28,6.28,0,0,1-1.9-.3,11.1,11.1,0,0,1-7.3-7.3,7,7,0,0,1,1.8-6.9,21.83,21.83,0,0,1,3.4-2.6,22.8,22.8,0,0,0,3-2.3,2.54,2.54,0,1,1,4.3,2.7,14.94,14.94,0,0,1-4.4,3.8,21,21,0,0,0-2.7,2,2,2,0,0,0-.5,2,5.7,5.7,0,0,0,3.7,3.7,1.83,1.83,0,0,0,2-.5,14.56,14.56,0,0,0,2-2.7,14.94,14.94,0,0,1,3.8-4.4,2.54,2.54,0,0,1,2.7,4.3,9.73,9.73,0,0,0-2.3,3,21.83,21.83,0,0,1-2.6,3.4A6.88,6.88,0,0,1,20.77,86.48ZM7.27,57.68a6.79,6.79,0,0,1-6-3.6,11,11,0,0,1,0-10.3,7.1,7.1,0,0,1,6.2-3.6,20.26,20.26,0,0,1,4.2.6,11.1,11.1,0,0,0,3.8.4,2.53,2.53,0,0,1,3,1.9,2.58,2.58,0,0,1-1.9,3,14.5,14.5,0,0,1-5.8-.4,23.3,23.3,0,0,0-3.4-.5,2.2,2.2,0,0,0-1.8,1.1,6.15,6.15,0,0,0,0,5.3,2,2,0,0,0,1.7,1.1h0a23.3,23.3,0,0,0,3.4-.5,14.5,14.5,0,0,1,5.8-.4,2.51,2.51,0,1,1-1.1,4.9,13.33,13.33,0,0,0-3.7.4,19.34,19.34,0,0,1-4.2.6Zm83.2,0h-.2a20.26,20.26,0,0,1-4.2-.6,10.9,10.9,0,0,0-3.8-.4,2.51,2.51,0,1,1-1.1-4.9,14.5,14.5,0,0,1,5.8.4,24.2,24.2,0,0,0,3.3.5h0a2.13,2.13,0,0,0,1.8-1.1,6.15,6.15,0,0,0,0-5.3,2.08,2.08,0,0,0-1.7-1.1,23.3,23.3,0,0,0-3.4.5,14.5,14.5,0,0,1-5.8.4,2.51,2.51,0,1,1,1.1-4.9,13.33,13.33,0,0,0,3.7-.4,20.26,20.26,0,0,1,4.2-.6,7,7,0,0,1,6.2,3.6,11,11,0,0,1,0,10.3A6.53,6.53,0,0,1,90.48,57.68Zm-68.6-25.8a2.47,2.47,0,0,1-2.1-1.2,9.73,9.73,0,0,0-3-2.3,20.47,20.47,0,0,1-3.4-2.6,6.9,6.9,0,0,1-1.8-6.9,11.1,11.1,0,0,1,7.3-7.3,7,7,0,0,1,6.9,1.8,27.85,27.85,0,0,1,2.6,3.4,22.8,22.8,0,0,0,2.3,3,2.54,2.54,0,1,1-2.7,4.3,14.94,14.94,0,0,1-3.8-4.4,21,21,0,0,0-2-2.7,2,2,0,0,0-2-.5,5.7,5.7,0,0,0-3.7,3.7,2,2,0,0,0,.5,2,14.56,14.56,0,0,0,2.7,2,14.94,14.94,0,0,1,4.4,3.8,2.58,2.58,0,0,1-.8,3.5A4.29,4.29,0,0,1,21.87,31.88Zm54,0a2,2,0,0,1-1.3-.4,2.56,2.56,0,0,1-.8-3.5,14.94,14.94,0,0,1,4.4-3.8,21,21,0,0,0,2.7-2,2,2,0,0,0,.5-2,5.7,5.7,0,0,0-3.7-3.7,1.78,1.78,0,0,0-2,.5,14.56,14.56,0,0,0-2,2.7,14.94,14.94,0,0,1-3.8,4.4,2.58,2.58,0,0,1-3.5-.8,2.49,2.49,0,0,1,.8-3.5,9.73,9.73,0,0,0,2.3-3,21.83,21.83,0,0,1,2.6-3.4,7,7,0,0,1,6.9-1.8,11.1,11.1,0,0,1,7.3,7.3,7,7,0,0,1-1.8,6.9,27.85,27.85,0,0,1-3.4,2.6,22.8,22.8,0,0,0-3,2.3A2.76,2.76,0,0,1,75.88,31.88Zm-32.3-13.4a.75.75,0,0,1-.5-.1,2.53,2.53,0,0,1-1.9-3,13.33,13.33,0,0,0-.4-3.7,20.26,20.26,0,0,1-.6-4.2,7,7,0,0,1,3.6-6.2,11,11,0,0,1,10.3,0,7.1,7.1,0,0,1,3.6,6.2,20.26,20.26,0,0,1-.6,4.2,11.1,11.1,0,0,0-.4,3.8,2.58,2.58,0,0,1-1.9,3,2.53,2.53,0,0,1-3-1.9,14.5,14.5,0,0,1,.4-5.8,23.3,23.3,0,0,0,.5-3.4,2.13,2.13,0,0,0-1.1-1.8,6.15,6.15,0,0,0-5.3,0,2,2,0,0,0-1.1,1.8,20.33,20.33,0,0,0,.5,3.3,14.5,14.5,0,0,1,.4,5.8A2.56,2.56,0,0,1,43.57,18.48Z"/><path class="cls-1" d="M40.17,80.58a1.7,1.7,0,0,1-.7-.1,32.9,32.9,0,1,1,18.8,0,2.5,2.5,0,1,1-1.4-4.8,27.9,27.9,0,1,0-16,0,2.53,2.53,0,0,1,1.7,3.1A2.46,2.46,0,0,1,40.17,80.58Zm17.3-8.9a2.5,2.5,0,0,1-1-4.8,22.18,22.18,0,0,0,4.2-2.5l-5-5a2.47,2.47,0,0,1,3.5-3.5l5,5a19.68,19.68,0,0,0,3.9-9.4H57.48a2.5,2.5,0,0,1,0-5h10.6a19.68,19.68,0,0,0-3.9-9.4l-7.1,7.2a2.42,2.42,0,0,1-3.5,0,2.5,2.5,0,0,1,0-3.5l7.2-7.2a19.68,19.68,0,0,0-9.4-3.9v10a2.5,2.5,0,0,1-5,0v-10a19.68,19.68,0,0,0-9.4,3.9l7.2,7.2a2.47,2.47,0,0,1-3.5,3.5l-7.2-7.2a19.68,19.68,0,0,0-3.9,9.4h10.6a2.5,2.5,0,0,1,0,5H29.57a18.75,18.75,0,0,0,3.9,9.4l5-5a2.47,2.47,0,0,1,3.5,3.5l-5,5a22.18,22.18,0,0,0,4.2,2.5,2.51,2.51,0,0,1-2,4.6,24.5,24.5,0,1,1,19.4,0A4.25,4.25,0,0,1,57.48,71.68Z"/><path class="cls-1" d="M66.48,97.87H31.17a2.5,2.5,0,0,1,0-5h6.5V48.58a11.2,11.2,0,1,1,22.4,0v44.3h6.5a2.48,2.48,0,0,1,2.5,2.5A2.56,2.56,0,0,1,66.48,97.87Zm-23.8-5H55V48.58a6.2,6.2,0,0,0-12.4,0v44.3Z"/></g></g></svg>