<?xml version="1.0" encoding="utf-8"?>
<!-- Generator: Adobe Illustrator 20.0.0, SVG Export Plug-In . SVG Version: 6.00 Build 0)  -->
<svg version="1.1" id="Layer_1" xmlns="http://www.w3.org/2000/svg" xmlns:xlink="http://www.w3.org/1999/xlink" x="0px" y="0px"
	 viewBox="0 0 31.9 29.6" style="enable-background:new 0 0 31.9 29.6;" xml:space="preserve">
<g>
	<g>
		<path style="fill:#D3D3D3;" d="M3.3,28.7C0.2,27-0.9,23,0.8,19.9c1.4-2.5,4-3.9,7-3.2l3.2-5.7c-2.2-2.2-2.3-5.1-0.9-7.6
			c1.8-3.1,5.7-4.3,8.8-2.5s4.3,5.8,2.5,8.9c-0.2,0.4-0.5,0.7-0.7,1.1l2.2,3.7l0,0c-1.4,0.4-2.6,1.1-3.6,2.1l-2.2-3.7
			c-0.8,0.2-1.5,0.3-2.6,0l-3.2,5.7c0.7,0.7,1,1.3,1.3,2.1l4.3-0.1H17c-0.3,1-0.3,2.9,0,4.2L12.7,25c-0.1,0.4-0.3,0.8-0.5,1.2
			C10.4,29.4,6.4,30.5,3.3,28.7z"/>
	</g>
	
		<ellipse transform="matrix(0.4907 -0.8713 0.8713 0.4907 -6.9483 33.7093)" style="fill:#D3D3D3;" cx="25.4" cy="22.8" rx="6.5" ry="6.5"/>
</g>
</svg>
