<?xml version="1.0" encoding="utf-8"?>
<!-- Generator: Adobe Illustrator 21.1.0, SVG Export Plug-In . SVG Version: 6.00 Build 0)  -->
<svg version="1.1" id="Layer_1" xmlns="http://www.w3.org/2000/svg" xmlns:xlink="http://www.w3.org/1999/xlink" x="0px" y="0px"
	 viewBox="0 0 82.4 75.8" style="enable-background:new 0 0 82.4 75.8;" xml:space="preserve">
<style type="text/css">
	.st0{fill:#BFBFBF;}
</style>
<title>Asset 1</title>
<g id="Layer_2">
	<g id="Layer_1-2">
		<path class="st0" d="M64.2,75.8c-7.2,0-13.7-4.2-16.7-10.7H35c-4.1,9.2-14.9,13.4-24.1,9.3C1.6,70.3-2.5,59.5,1.6,50.3
			c2.9-6.6,9.5-10.9,16.7-10.9c0.6,0,1.2,0,1.8,0.1l6.2-10.7c-5.9-8.2-4-19.7,4.3-25.5s19.7-4,25.5,4.3c4.5,6.4,4.5,14.9,0,21.2
			l6.2,10.7c0.6-0.1,1.2-0.1,1.8-0.1c10.1,0,18.2,8.1,18.3,18.2S74.3,75.8,64.2,75.8z M31.6,60.1H51l0.6,1.7
			c2.3,7,9.8,10.8,16.7,8.5c7-2.3,10.8-9.8,8.5-16.7c-1.8-5.5-6.9-9.2-12.6-9.2c-0.9,0-1.7,0.1-2.6,0.3l-1.8,0.4l-9.7-16.8l1.2-1.4
			c4.8-5.5,4.3-13.9-1.2-18.8s-14-4.3-18.8,1.3c-4.4,5-4.4,12.5,0,17.5l1.2,1.4l-9.7,16.8l-1.7-0.3c-0.9-0.2-1.7-0.3-2.6-0.3
			c-7.3,0-13.2,6-13.1,13.3c0,7.3,6,13.2,13.3,13.1c5.6,0,10.6-3.7,12.4-9L31.6,60.1z M51,55.1H31.6L31,53.4
			c-0.5-1.7-1.4-3.2-2.6-4.5l-1.2-1.4l9.7-16.7l1.7,0.3c1.7,0.4,3.6,0.4,5.3,0l1.8-0.4l9.7,16.8l-1.2,1.4c-1.2,1.3-2.1,2.8-2.6,4.5
			L51,55.1z M35,50.1h12.5C48,49,48.6,48,49.3,47l-6.2-10.7c-1.2,0.1-2.4,0.1-3.6,0L33.3,47C34,48,34.5,49,35,50.1z"/>
	</g>
</g>
</svg>
