<?xml version="1.0" encoding="utf-8"?>
<!-- Generator: Adobe Illustrator 21.1.0, SVG Export Plug-In . SVG Version: 6.00 Build 0)  -->
<svg version="1.1" id="Layer_1" xmlns="http://www.w3.org/2000/svg" xmlns:xlink="http://www.w3.org/1999/xlink" x="0px" y="0px"
	 viewBox="0 0 61.4 75.8" style="enable-background:new 0 0 61.4 75.8;" xml:space="preserve">
<style type="text/css">
	.st0{fill:#BFBFBF;}
</style>
<title>Asset 1</title>
<g id="Layer_2">
	<g id="Layer_1-2">
		<path class="st0" d="M30.7,75.8C14.4,75.8,0,67.2,0,57.4v-8.1c-0.1-1.4,0.8-2.7,2.1-3.1c0.6-0.2,2.3-0.4,3.6,1.7
			c2.6,4.1,11.9,8.3,25,8.3s22.4-4.2,25-8.3c1.3-2.1,2.9-1.9,3.6-1.7c1.3,0.4,2.2,1.7,2.1,3.1v8.1C61.4,67.2,47,75.8,30.7,75.8z
			 M5,54.4v3c0,6.1,11.5,13.4,25.7,13.4s25.7-7.3,25.7-13.4v-3c-5.5,4.3-15.1,6.9-25.7,6.9S10.5,58.7,5,54.4z M30.7,53.5
			C13.2,53.5,0,46.9,0,38.2v-9.5c-0.1-1.3,0.7-2.5,2-2.9c0.5-0.2,2.2-0.5,3.6,1.5c2.5,3.6,11.9,7.3,25.1,7.3s22.6-3.7,25.1-7.3
			c1.4-2,3.1-1.7,3.6-1.5c1.2,0.4,2,1.6,2,2.9v9.5C61.4,47,48.2,53.5,30.7,53.5z M5,33.5v4.7c0,4.9,10.5,10.3,25.7,10.3
			S56.4,43,56.4,38.2v-4.7c-5.5,3.8-15,6.2-25.7,6.2S10.5,37.3,5,33.5z M30.7,31.9C15.8,31.9,0,27.1,0,18.2v-5.1
			C0,4.5,15.4,0,30.7,0s30.7,4.5,30.7,13.1v5C61.4,27,45.6,31.9,30.7,31.9z M30.7,4.9C15,4.9,5,9.7,5,13v5.1c0,3.6,10,8.7,25.7,8.7
			s25.7-5.2,25.7-8.7V13C56.4,9.7,46.4,4.9,30.7,4.9z"/>
	</g>
</g>
</svg>
