<?xml version="1.0" encoding="utf-8"?>
<!-- Generator: Adobe Illustrator 21.1.0, SVG Export Plug-In . SVG Version: 6.00 Build 0)  -->
<!DOCTYPE svg PUBLIC "-//W3C//DTD SVG 1.1//EN" "http://www.w3.org/Graphics/SVG/1.1/DTD/svg11.dtd">
<svg version="1.1" id="Layer_1" xmlns="http://www.w3.org/2000/svg" xmlns:xlink="http://www.w3.org/1999/xlink" x="0px" y="0px"
	 viewBox="0 0 474 78.2" style="enable-background:new 0 0 474 78.2;" xml:space="preserve">
<g id="UNLEASH_x5F_w_x5F_notag_x5F_horizontal">
	<g>
		<g>
			<path d="M79.1,1.3h18.7l20.9,35.2c3,5,6.3,12.9,6.3,12.9h0.2c0,0-0.8-8.1-0.8-12.9V1.3h18.5v75.4h-18.6l-21-35.1
				c-3-5-6.3-12.9-6.3-12.9h-0.2c0,0,0.8,8.1,0.8,12.9v35.1H79.1V1.3z"/>
			<polygon points="159,1.3 177.5,1.3 177.5,60.9 208.3,60.9 208.3,76.7 159,76.7 			"/>
			<polygon points="216.2,1.3 263.5,1.3 263.5,17.1 234.7,17.1 234.7,30.8 257.7,30.8 257.7,46.6 234.7,46.6 234.7,60.9 265,60.9 
				265,76.7 216.2,76.7 			"/>
			<path d="M317,60.9h-23.5L289,76.7h-19l25.6-75.4H315l25.6,75.4h-19L317,60.9z M305.2,18.5c0,0-1.7,8.2-3.1,13l-4.3,14.7h14.9
				l-4.2-14.7c-1.4-4.7-3.1-13-3.1-13H305.2z"/>
			<path d="M353.5,53.2c0,0,8.5,7.8,18,7.8c3.8,0,7.9-1.5,7.9-6c0-9-34-8.7-34-31.9C345.5,9.2,357.2,0,372.2,0
				c16.2,0,24.3,8.5,24.3,8.5l-7.8,15.1c0,0-7.6-6.6-16.7-6.6c-3.8,0-8,1.7-8,5.9c0,9.5,34,7.8,34,31.6c0,12.6-9.6,23.4-26.6,23.4
				c-17.7,0-27.5-10.8-27.5-10.8L353.5,53.2z"/>
			<polygon points="409.7,1.3 428.1,1.3 428.1,31.4 455.6,31.4 455.6,1.3 474,1.3 474,76.7 455.6,76.7 455.6,47.2 428.1,47.2 
				428.1,76.7 409.7,76.7 			"/>
			<path d="M31.4,50.1C31.4,50.1,31.5,50.2,31.4,50.1L31.4,50.1L31.4,50.1z"/>
			<path d="M31.5,50.2c10.2,8,22.1-0.2,31.7-13.1l0,0V26.8c0,0,0,0,0,0C55.8,43.5,44.3,56.5,31.5,50.2c0.1,0,0.1,0,0.1,0L31.5,50.2
				c18.7,5.2,29.9-24.6,31.6-48.9c0,0,0,0,0,0h-8c0,0,0,0,0,0c1.2,23.2-5.6,50-23.5,48.9c0,0,0,0,0,0c16.8-2.1,20.4-27.1,16.6-48.9
				c0,0,0,0,0,0h-7.5c6.6,20.1,6.4,43.6-9,48.9c0,0,0,0,0,0l0,0h0c0,0,0,0,0,0c10.4-13.3-0.4-35.1-16-48.8H0.1v0.1
				c20.7,8.4,40.4,31.2,31.8,48.7c0,0,0,0,0-0.1C36.6,33.1,19.1,16.2,0,9.7v8.2c17.3,4,32.9,16.2,31.9,32.1c0,0,0,0,0,0v0
				c0,0,0,0,0,0c0,0,0,0,0-0.1v0l0,0v0c0,0,0,0,0,0C25.3,38.4,12.6,34.7,0,37.1v6.4c11-4.5,23.2-3.4,31.8,6.4c0,0,0,0-0.1,0
				c0,0,0,0,0,0h0c0,0,0,0,0,0C17.9,46,8.5,52.7,3.9,63.9c0,0,0,0.1-0.1,0.1c0.7,1.2,1.5,2.3,2.3,3.4c0,0,0,0.1,0.1,0.1
				c0.8,0.9,1.6,1.8,2.5,2.7C10,57.8,17,48.9,31.6,49.8c0,0,0,0-0.1,0c0,0,0,0,0,0c0,0,0,0,0,0l0,0c0,0,0,0,0,0c0,0,0,0,0,0l0,0v0
				c0,0.1,0,0.1,0,0.2C31.4,50.1,31.4,50.1,31.5,50.2C31.4,50.2,31.5,50.2,31.5,50.2C31.5,50.2,31.5,50.2,31.5,50.2
				c6.4,11.3,19.1,7.9,31.7-0.7c0-0.2,0-0.3,0-0.5v-5.5l0,0C52.1,54.2,40,59.8,31.5,50.2L31.5,50.2z"/>
			<path d="M31.4,50.1C31.4,50.1,31.4,50.1,31.4,50.1c1.7,13.7,14.9,14.5,29.7,10.2c0.7-1.8,1.2-3.7,1.6-5.7
				C48.9,61.4,35.7,62.9,31.4,50.1"/>
			<path d="M31.4,50c-3.9,14,7.7,19.2,22.8,20.4c1.7-1.5,3.1-3.2,4.4-5.1C43.2,67.1,30.5,64.3,31.4,50"/>
			<path d="M31.4,50C31.4,50,31.4,50,31.4,50c-9,11.5-1.9,20.4,10.4,26.9c2.5-0.7,4.9-1.6,7-2.8C34.7,70.3,25,63.1,31.4,50
				C31.4,50,31.4,50,31.4,50C31.4,50,31.4,50,31.4,50"/>
			<path d="M31.5,49.9L31.5,49.9L31.5,49.9C31.5,49.8,31.5,49.8,31.5,49.9C31.5,49.8,31.6,49.8,31.5,49.9
				c-14.6,1.7-18.9,11.9-17.1,24.3c2.1,1.1,4.4,2.1,6.9,2.7C16.4,65.2,17.6,54.6,31.5,49.9C18.8,57,20.2,67.5,27.7,78
				c1.3,0.1,2.6,0.2,4,0.2c1.2,0,2.3,0,3.4-0.1C25,69.4,20.5,59.5,31.5,49.9"/>
			<path d="M31.7,49.8C31.7,49.8,31.7,49.8,31.7,49.8C21.3,41.7,9.5,43,0,49.8c0.1,2.7,0.4,5.2,1.1,7.6C8.3,48,19.3,43.7,31.7,49.8"
				/>
			<path d="M31.8,49.9L31.8,49.9L31.8,49.9L31.8,49.9C31.8,49.9,31.8,49.9,31.8,49.9C31.8,49.9,31.8,49.9,31.8,49.9
				C30.1,35.4,15.7,26.4,0,24.5v6.7C14,30.9,27.4,36.9,31.8,49.9L31.8,49.9C31.8,49.9,31.8,49.9,31.8,49.9"/>
		</g>
	</g>
</g>
</svg>
